<?xml version="1.0" encoding="UTF-8"?>
<svg width="300px" height="300px" viewBox="0 0 300 300" version="1.1" xmlns="http://www.w3.org/2000/svg" xmlns:xlink="http://www.w3.org/1999/xlink">
    <!-- Generator: Sketch 46.2 (44496) - http://www.bohemiancoding.com/sketch -->
    <title>logo-ledcoin</title>
    <desc>Created with Sketch.</desc>
    <defs></defs>
    <g id="Page-3" stroke="none" stroke-width="1" fill="none" fill-rule="evenodd">
        <g id="logo-ledcoin">
            <path d="M143.168218,280.201386 C143.173861,281.819109 144.457327,283.093861 146.07495,283.088515 L159.694752,283.042475 C161.162079,283.037426 162.324257,281.867129 162.319505,280.399802 C162.314455,278.932574 161.144059,277.770099 159.676832,277.775149 L148.95396,277.811287 L148.89198,259.413663 C148.886337,257.795644 147.602871,256.520594 145.985149,256.526238 C144.367426,256.531584 143.092475,257.81505 143.09802,259.43297 L143.168218,280.201386 Z M178.187921,280.121188 L192.541584,276.570297 C193.929406,276.22703 194.790495,274.85099 194.447228,273.463069 C194.10396,272.075248 192.691485,271.223168 191.303564,271.566436 L179.725842,274.430792 L178.397525,269.061782 L188.149307,266.649604 C189.537129,266.306337 190.398218,264.930297 190.05495,263.542376 C189.711683,262.154554 188.299109,261.302475 186.911287,261.645743 L177.159802,264.058218 L175.876634,258.87198 L187.27198,256.053069 C188.659802,255.709505 189.521089,254.334059 189.177921,252.946139 C188.834356,251.558317 187.422079,250.706238 186.034257,251.049505 L171.863267,254.555149 C170.29297,254.943564 169.358416,256.492574 169.746832,258.063069 L174.680198,278.004752 C175.068614,279.57495 176.617624,280.509604 178.187921,280.121188 Z M206.506832,267.865347 C207.332772,269.25604 209.08604,269.702871 210.476733,268.876634 L216.817129,265.110693 C223.933465,260.883762 225.91099,253.013762 222.125743,246.641485 L222.087327,246.576634 C218.302376,240.20396 210.484059,238.240198 203.367723,242.467228 L197.027327,246.233069 C195.636436,247.059109 195.189901,248.812376 196.016139,250.203267 L206.506832,267.865347 Z M210.296832,262.900792 L202.188911,249.250198 L206.038416,246.963663 C210.114158,244.542673 214.535347,245.723663 216.917822,249.734851 L216.956337,249.799703 C219.338515,253.810594 218.222376,258.193366 214.146337,260.614257 L210.296832,262.900792 Z M248.730396,239.86495 C251.625149,236.648911 252.419406,233.516733 252.394653,230.001485 C252.403069,229.65495 252.274554,229.23505 251.938911,228.933069 C251.379604,228.429604 250.423069,228.479802 249.919901,229.039109 C249.667822,229.31901 249.581386,229.696139 249.597921,230.015248 C249.62604,233.077525 248.929406,235.538614 246.739703,237.971386 C242.863267,242.277822 236.366634,242.35297 231.836535,238.275347 L231.780693,238.224851 C227.278317,234.172376 226.674653,227.757129 230.576337,223.422574 C232.740792,221.017624 235.171287,220.117327 237.872871,219.815644 C238.135545,219.748515 238.501881,219.622475 238.778614,219.31495 C239.307327,218.727822 239.282376,217.743267 238.695248,217.214752 C238.303465,216.862277 237.794554,216.809208 237.397426,216.856634 C234.251287,217.315248 231.404257,218.397129 228.560099,221.557129 C223.37495,227.317921 224.235743,235.584356 229.772574,240.568317 L229.828713,240.618812 C235.449406,245.677921 243.64604,245.513465 248.730396,239.86495 Z M269.64396,209.372079 C273.35505,202.269109 270.245644,194.489307 263.809604,191.126733 L263.742871,191.09198 C257.30703,187.729406 249.246535,189.588416 245.535743,196.691386 C241.824554,203.794257 244.93396,211.573762 251.369703,214.936337 L251.436832,214.971188 C257.872574,218.333762 265.933069,216.47495 269.64396,209.372079 Z M267.244554,208.033564 C264.456832,213.368911 258.100495,214.972277 252.798317,212.201881 L252.731782,212.167129 C247.429604,209.39703 245.147525,203.365149 247.93505,198.029802 C250.722772,192.694257 257.078614,191.091089 262.380792,193.861188 L262.447822,193.896238 C267.749802,196.666337 270.032079,202.69802 267.244554,208.033564 Z M277.908713,181.629307 C278.713366,181.823168 279.530099,181.323366 279.715347,180.555248 C279.90901,179.750594 279.409109,178.933564 278.604554,178.739901 L255.560495,173.190198 C254.755842,172.996238 253.938911,173.496139 253.74495,174.300693 C253.56,175.068911 254.059802,175.885941 254.864455,176.079505 L277.908713,181.629307 Z M281.821089,162.544554 C282.611188,162.54198 283.286139,161.900396 283.283663,161.110099 C283.280792,160.282475 282.601386,159.64505 281.811287,159.647822 L261.419505,159.716634 L282.245248,143.317525 C282.770594,142.864257 283.14495,142.411287 283.143069,141.771881 L283.142475,141.621188 C283.139703,140.831188 282.535941,140.268713 281.745941,140.271485 L257.967723,140.352079 C257.177624,140.354554 256.502673,140.996436 256.505248,141.786535 C256.50802,142.614455 257.187525,143.251782 257.977525,143.249307 L277.842772,143.18198 L257.50495,159.240891 C256.979505,159.656535 256.642475,160.071683 256.644653,160.748911 L256.646139,161.162574 C256.648614,161.952673 257.328416,162.627624 258.118416,162.624851 L281.821089,162.544554 Z" id="Fill-24" fill="#1CAAE2"></path>
            <path d="M129.717498,298.342696 C126.607875,298.270795 124.106238,295.72462 124.106238,292.597822 L124.106238,187.140297 L103.993663,187.140297 C100.821683,187.140297 98.2472277,184.565842 98.2472277,181.393762 L98.2472277,164.154356 C98.2472277,160.982376 100.821683,158.408218 103.993663,158.408218 L109.740198,158.408218 L109.740198,112.436733 C109.740198,90.2554455 127.78396,72.2116832 149.965248,72.2116832 C172.146139,72.2116832 190.189901,90.2554455 190.189901,112.436733 L190.189901,158.408218 L195.936436,158.408218 C199.108416,158.408218 201.682871,160.982376 201.682871,164.154356 L201.682871,181.393762 C201.682871,184.565842 199.108416,187.140297 195.936436,187.140297 L175.823861,187.140297 L175.823861,238.929208 C175.823861,242.101287 173.249703,244.675743 170.077426,244.675743 C166.905446,244.675743 164.331287,242.101287 164.331287,238.929208 L164.331287,187.140297 L135.599109,187.140297 L135.599109,287.079622 C140.321044,287.568991 145.113561,287.820396 149.96495,287.820396 C226.12396,287.820396 287.860594,226.083861 287.860594,149.924752 C287.860594,73.7656436 226.12396,12.0291089 149.96495,12.0291089 C73.8058416,12.0291089 12.0692079,73.7656436 12.0692079,149.924752 C12.0692079,188.004455 27.5037624,222.47901 52.4573267,247.432376 C66.3785149,261.353564 83.2625743,272.312376 102.083564,279.279208 C113.582376,283.535644 109.801386,294.693465 99.2323762,290.89 C78.2784158,283.349307 59.4914851,271.266931 44.0572277,255.832475 C16.9526733,228.728218 0.187821782,191.28396 0.187821782,149.924752 C0.187821782,67.2070297 67.2471287,0.147722772 149.96495,0.147722772 C232.682673,0.147722772 299.74198,67.2070297 299.74198,149.924752 C299.74198,232.642475 232.682673,299.701782 149.96495,299.701782 C143.097757,299.701782 136.339382,299.237595 129.717498,298.342696 Z M220.358713,105.253564 C223.530693,105.253564 226.105149,107.82802 226.105149,111 C226.105149,114.17198 223.530693,116.746535 220.358713,116.746535 L203.119604,116.746535 C199.947624,116.746535 197.373069,114.17198 197.373069,111 C197.373069,107.82802 199.947624,105.253564 203.119604,105.253564 L220.358713,105.253564 Z M121.232871,112.436733 L121.232871,158.408218 L178.697327,158.408218 L178.697327,112.436733 C178.697327,96.5938614 165.80802,83.7046535 149.965248,83.7046535 C134.122079,83.7046535 121.232871,96.5938614 121.232871,112.436733 Z M149.965248,89.4510891 C153.137228,89.4510891 155.711386,92.0252475 155.711386,95.1975248 C155.711386,98.369604 153.137228,100.943762 149.965248,100.943762 C143.626832,100.943762 138.472277,106.098317 138.472277,112.436733 C138.472277,115.608713 135.897822,118.183168 132.725743,118.183168 C129.553762,118.183168 126.979307,115.608713 126.979307,112.436733 C126.979307,99.7630693 137.291287,89.4510891 149.965248,89.4510891 Z M190.189901,175.647327 L190.189901,169.900891 L184.443465,169.900891 L115.486634,169.900891 L109.740198,169.900891 L109.740198,175.647327 L190.189901,175.647327 Z M149.965248,63.5920792 C146.79297,63.5920792 144.218713,61.0176238 144.218713,57.8456436 L144.218713,40.6065347 C144.218713,37.4344554 146.79297,34.86 149.965248,34.86 C153.137228,34.86 155.711386,37.4344554 155.711386,40.6065347 L155.711386,57.8456436 C155.711386,61.0176238 153.137228,63.5920792 149.965248,63.5920792 Z M187.549505,79.1591089 C186.078614,79.1591089 184.610198,78.5989109 183.486733,77.4754455 C181.242871,75.2315842 181.242871,71.5939604 183.486733,69.350099 L195.677921,57.1589109 C197.921782,54.9150495 201.559406,54.9150495 203.803267,57.1589109 C206.047426,59.4029703 206.047426,63.040297 203.803267,65.2844554 L191.612277,77.4754455 C190.488812,78.5989109 189.020693,79.1591089 187.549505,79.1591089 Z M108.31495,77.4782178 L96.1240594,65.2873267 C93.879901,63.0434653 93.879901,59.4058416 96.1240594,57.1619802 C98.3679208,54.9178218 102.008317,54.9178218 104.249406,57.1619802 L116.440297,69.3528713 C118.684455,71.5967327 118.684455,75.2343564 116.440297,77.4782178 C115.317129,78.6016832 113.848713,79.1621782 112.377822,79.1621782 C110.906634,79.1621782 109.435644,78.6016832 108.31495,77.4782178 Z M102.55703,111 C102.55703,114.17198 99.9827723,116.746535 96.810495,116.746535 L79.5713861,116.746535 C76.3994059,116.746535 73.8249505,114.17198 73.8249505,111 C73.8249505,107.82802 76.3994059,105.253564 79.5713861,105.253564 L96.810495,105.253564 C99.9827723,105.253564 102.55703,107.82802 102.55703,111 Z" id="Fill-30" fill="#FECB31"></path>
        </g>
    </g>
</svg>