<?xml version="1.0" encoding="UTF-8"?>
<svg width="342px" height="149px" viewBox="0 0 342 149" version="1.1" xmlns="http://www.w3.org/2000/svg" xmlns:xlink="http://www.w3.org/1999/xlink">
    <!-- Generator: Sketch 46.1 (44463) - http://www.bohemiancoding.com/sketch -->
    <title>lstme_cutout</title>
    <desc>Created with Sketch.</desc>
    <defs></defs>
    <g id="Page-1" stroke="none" stroke-width="1" fill="none" fill-rule="evenodd">
        <path d="M354.916,110.1586 C355.412,108.5166 355.787,107.2796 356.226,105.8296 C353.645,106.8566 353.364,107.7166 354.916,110.1586 L354.916,110.1586 Z M379.602,34.2486 C377.921,34.4016 377.167,35.0446 376.92,36.1336 C376.701,37.0976 376.937,37.9746 378.228,38.5386 C378.677,37.1376 379.092,35.8406 379.602,34.2486 L379.602,34.2486 Z M364.018,75.1276 C362.83,75.0646 361.643,76.0946 361.548,77.2666 C361.442,78.5726 362.54,79.8316 363.813,79.8656 C364.733,79.8896 365.722,78.2806 365.762,76.6936 C365.782,75.8386 365.051,75.1806 364.018,75.1276 L364.018,75.1276 Z M90.089,141.2296 C90.027,139.9056 88.866,138.9156 87.501,139.0226 C86.223,139.1226 85.329,140.1096 85.348,141.3996 C85.367,142.7136 86.548,143.7456 87.889,143.6216 C89.102,143.5096 90.143,142.3776 90.089,141.2296 L90.089,141.2296 Z M90.052,80.2066 C90.107,78.9356 89.183,77.8526 87.964,77.7606 C86.562,77.6516 85.418,78.6016 85.353,79.9276 C85.288,81.2236 86.394,82.4126 87.683,82.4326 C88.843,82.4516 90.001,81.3626 90.052,80.2066 L90.052,80.2066 Z M269.029,-11.9084 C269.009,-13.1194 267.912,-14.2624 266.775,-14.2564 C265.49,-14.2494 264.301,-13.0624 264.312,-11.7994 C264.325,-10.5044 265.505,-9.4574 266.877,-9.5234 C268.163,-9.5844 269.053,-10.5704 269.029,-11.9084 L269.029,-11.9084 Z M269.39,136.3966 C268.094,136.3396 266.922,137.4686 266.913,138.7826 C266.904,140.0266 267.881,141.0456 269.155,141.1226 C270.447,141.2016 271.621,140.0816 271.636,138.7576 C271.648,137.5756 270.577,136.4486 269.39,136.3966 L269.39,136.3966 Z M51.802,47.0316 C50.531,47.1026 49.43,48.3676 49.524,49.6476 C49.611,50.8216 50.78,51.8366 51.991,51.7886 C53.311,51.7366 54.386,50.5096 54.247,49.2136 C54.116,47.9956 52.962,46.9666 51.802,47.0316 L51.802,47.0316 Z M87.623,123.2796 C88.861,123.3136 90.107,122.0946 90.083,120.8716 C90.059,119.6936 88.972,118.6246 87.767,118.5926 C86.405,118.5556 85.301,119.6296 85.331,120.9606 C85.357,122.1326 86.459,123.2486 87.623,123.2796 L87.623,123.2796 Z M3.041,113.1376 C2.989,111.8236 2.032,110.8846 0.741,110.8816 C-0.532,110.8786 -1.728,112.0896 -1.685,113.3406 C-1.645,114.5356 -0.287,115.7116 0.947,115.6186 C2.117,115.5306 3.09,114.3796 3.041,113.1376 L3.041,113.1376 Z M338.364,100.6536 C337.163,100.6186 336.063,101.6476 335.991,102.8746 C335.912,104.2346 336.949,105.3676 338.299,105.3926 C339.522,105.4156 340.598,104.4286 340.701,103.1856 C340.805,101.9326 339.659,100.6906 338.364,100.6536 L338.364,100.6536 Z M62.351,67.4116 C62.399,68.7476 63.521,69.7426 64.859,69.6376 C66.025,69.5456 67.105,68.4136 67.112,67.2756 C67.12,66.0346 65.859,64.8226 64.643,64.9026 C63.301,64.9916 62.303,66.0846 62.351,67.4116 L62.351,67.4116 Z M356.029,59.6416 C356.022,58.3916 355.011,57.2996 353.812,57.2436 C352.504,57.1836 351.344,58.2806 351.303,59.6186 C351.26,61.0126 352.305,62.0156 353.742,61.9586 C354.984,61.9096 356.037,60.8436 356.029,59.6416 L356.029,59.6416 Z M381.607,18.7796 C381.619,17.5016 380.656,16.4726 379.395,16.4186 C378.084,16.3626 376.904,17.4716 376.892,18.7736 C376.88,20.0526 377.847,21.0836 379.103,21.1356 C380.421,21.1896 381.594,20.0846 381.607,18.7796 L381.607,18.7796 Z M322.853,138.6106 C324.05,138.6486 325.437,137.3646 325.421,136.2336 C325.403,135.0506 324.33,133.9446 323.133,133.8756 C321.797,133.7976 320.642,134.8746 320.627,136.2116 C320.613,137.4276 321.677,138.5746 322.853,138.6106 L322.853,138.6106 Z M44.072,120.7976 C44.031,119.6606 42.864,118.5606 41.702,118.5646 C40.3,118.5706 39.316,119.5876 39.355,120.9916 C39.391,122.2516 40.38,123.2406 41.637,123.2736 C42.81,123.3046 44.114,121.9776 44.072,120.7976 L44.072,120.7976 Z M323.065,113.3976 C321.773,113.3646 320.601,114.5216 320.608,115.8226 C320.616,117.0476 321.648,118.0846 322.898,118.1246 C324.239,118.1676 325.382,117.0526 325.348,115.7356 C325.315,114.5166 324.254,113.4296 323.065,113.3976 L323.065,113.3976 Z M21.064,146.4186 C21.064,145.1626 19.967,144.1326 18.582,144.0886 C17.189,144.0446 16.228,144.9816 16.202,146.4096 C16.178,147.6806 17.284,148.7846 18.611,148.8126 C19.871,148.8386 21.063,147.6746 21.064,146.4186 L21.064,146.4186 Z M54.293,85.1756 C54.323,83.9986 53.259,82.8556 52.066,82.7836 C50.782,82.7056 49.541,83.8446 49.527,85.1126 C49.513,86.3396 50.505,87.3986 51.753,87.4896 C53.031,87.5816 54.26,86.4616 54.293,85.1756 L54.293,85.1756 Z M-24.86,16.4116 C-26.129,16.4296 -27.287,17.6236 -27.242,18.8676 C-27.195,20.1586 -26.046,21.1926 -24.713,21.1436 C-23.481,21.0986 -22.487,20.0716 -22.48,18.8376 C-22.473,17.5116 -23.571,16.3926 -24.86,16.4116 L-24.86,16.4116 Z M156.528,-38.1864 C150.236,-38.0424 144.15,-37.9034 137.795,-37.7574 C137.949,-35.4604 138.078,-33.5264 138.218,-31.4244 C144.51,-31.8894 150.533,-31.5104 156.528,-32.0264 L156.528,-38.1864 Z M275.559,-24.3134 C281.771,-23.2624 287.718,-22.2564 293.924,-21.2064 C294.269,-23.3374 294.579,-25.2554 294.915,-27.3344 C288.6,-28.3994 282.656,-29.7994 276.407,-30.2814 C276.109,-28.1914 275.853,-26.3884 275.559,-24.3134 L275.559,-24.3134 Z M110.937,-29.6964 C110.703,-31.9894 110.512,-33.8664 110.3,-35.9404 C103.996,-35.3124 97.919,-34.7064 91.688,-34.0854 C91.952,-31.8644 92.174,-29.9894 92.424,-27.8824 C98.607,-28.4884 104.616,-29.0774 110.937,-29.6964 L110.937,-29.6964 Z M64.248,-30.7014 C57.914,-29.6454 51.888,-28.6394 45.666,-27.6014 C46.073,-25.4364 46.421,-23.5854 46.826,-21.4284 C49.995,-21.9764 53.046,-22.4284 56.063,-23.0464 C59.066,-23.6614 62.197,-23.6384 65.213,-24.6124 C64.888,-26.6614 64.603,-28.4614 64.248,-30.7014 L64.248,-30.7014 Z M18.559,-21.9794 C15.544,-21.8964 1.826,-18.7244 0.273,-17.7444 C0.728,-15.9644 1.193,-14.1404 1.698,-12.1614 C7.85,-13.5194 13.783,-14.8284 19.916,-16.1824 C19.406,-18.3614 18.977,-20.1904 18.559,-21.9794 L18.559,-21.9794 Z M229.864,-29.5914 C236.22,-28.9514 242.255,-28.2234 248.469,-27.8344 C248.685,-30.0054 248.869,-31.8704 249.078,-33.9714 C242.826,-34.5834 236.76,-35.1784 230.469,-35.7944 C230.264,-33.6924 230.081,-31.8204 229.864,-29.5914 L229.864,-29.5914 Z M-42.894,0.3086 C-36.751,-1.5564 -30.915,-3.3284 -24.94,-5.1434 C-25.549,-7.2704 -26.069,-9.0864 -26.663,-11.1564 C-32.755,-9.3114 -38.672,-7.5194 -44.789,-5.6664 C-44.14,-3.6204 -43.57,-1.8234 -42.894,0.3086 L-42.894,0.3086 Z M202.929,-37.3454 C199.555,-38.0184 186.116,-38.2604 184.239,-37.7284 L184.239,-31.8964 C190.378,-31.7494 196.385,-31.6064 202.604,-31.4574 C202.716,-33.4964 202.819,-35.3734 202.929,-37.3454 L202.929,-37.3454 Z M385.519,-5.2774 C379.456,-7.1134 373.553,-8.9024 367.449,-10.7514 C366.848,-8.5934 366.325,-6.7204 365.763,-4.7024 C371.856,-2.8664 377.698,-1.1074 383.688,0.6976 C384.335,-1.4114 384.887,-3.2134 385.519,-5.2774 L385.519,-5.2774 Z M322.11,-22.0264 C321.673,-19.8114 321.308,-17.9614 320.896,-15.8814 C327.015,-14.5264 332.96,-13.2094 339.134,-11.8424 C339.633,-13.9124 340.088,-15.7994 340.603,-17.9394 C334.332,-19.3244 328.375,-20.6414 322.11,-22.0264 L322.11,-22.0264 Z M207.124,-135.5144 C200.227,-135.6794 193.336,-135.8444 186.229,-136.0144 L186.229,-129.7664 C193.227,-129.5904 200.055,-129.4174 207.124,-129.2384 L207.124,-135.5144 Z M-21.361,-107.3264 C-14.362,-108.8804 -7.542,-110.2314 -0.679,-111.9174 C-1.151,-114.1004 -1.55,-115.9414 -1.987,-117.9554 C-9.025,-116.4094 -15.855,-115.0634 -22.806,-113.3204 C-22.289,-111.1744 -21.849,-109.3494 -21.361,-107.3264 L-21.361,-107.3264 Z M49.929,-127.5374 C42.746,-126.3434 35.923,-125.2084 28.867,-124.0354 C29.263,-121.8114 29.603,-119.9034 29.964,-117.8724 C37.093,-119.0524 43.916,-120.1814 50.908,-121.3384 C50.588,-123.3654 50.294,-125.2294 49.929,-127.5374 L49.929,-127.5374 Z M310.873,-117.6004 C311.251,-119.7034 311.596,-121.6174 311.972,-123.7114 C304.835,-124.9224 298.026,-126.4704 290.942,-127.1064 C290.618,-124.9794 290.334,-123.1174 290.032,-121.1354 C297.066,-119.9424 303.876,-118.7874 310.873,-117.6004 L310.873,-117.6004 Z M238.127,-127.3754 C241.36,-126.4904 257.518,-125.1014 259.264,-125.5404 C259.461,-127.3654 259.662,-129.2254 259.883,-131.2544 C252.608,-131.9254 245.709,-132.7914 238.665,-133.2364 C238.472,-131.1334 238.306,-129.3244 238.127,-127.3754 L238.127,-127.3754 Z M102.301,-133.4904 C95.154,-132.7844 88.212,-132.0994 81.076,-131.3944 C81.343,-129.2004 81.57,-127.3274 81.832,-125.1804 C88.904,-125.8794 95.767,-126.5564 102.818,-127.2524 C102.637,-129.4414 102.481,-131.3194 102.301,-133.4904 L102.301,-133.4904 Z M133.835,-129.3174 C141.055,-129.4764 147.891,-129.6274 154.844,-129.7804 C154.922,-131.9804 155.132,-133.9174 154.565,-136.0454 C147.561,-135.7264 140.637,-136.0544 133.506,-135.4034 C133.622,-133.2574 133.724,-131.3714 133.835,-129.3174 L133.835,-129.3174 Z M342.935,-117.6484 C342.379,-115.4194 341.59,-113.5894 341.862,-111.4704 C348.704,-109.9614 355.439,-108.4764 362.334,-106.9554 C362.825,-109.0174 363.261,-110.8514 363.759,-112.9434 C356.825,-114.7834 349.954,-116.0474 342.935,-117.6484 L342.935,-117.6484 Z M414.877,-98.6554 C407.907,-100.7624 401.211,-102.7864 394.29,-104.8794 C393.679,-102.7584 393.141,-100.8904 392.555,-98.8574 C399.486,-96.7614 406.108,-94.7594 412.949,-92.6914 C413.599,-94.7004 414.18,-96.4964 414.877,-98.6554 L414.877,-98.6554 Z M-71.996,-93.1294 C-64.99,-95.2604 -58.37,-97.2754 -51.585,-99.3384 C-52.196,-101.4704 -52.714,-103.2814 -53.306,-105.3474 C-60.283,-103.2164 -67.066,-101.2994 -73.906,-99.0214 C-73.234,-96.9474 -72.652,-95.1534 -71.996,-93.1294 L-71.996,-93.1294 Z M304.352,149.6976 L304.352,147.1116 C304.352,142.0716 304.387,137.0316 304.331,131.9926 C304.313,130.4486 304.739,129.2466 305.884,128.1606 C308.318,125.8496 310.575,123.3516 313.047,121.0846 C314.675,119.5916 315.572,118.0936 315.372,115.7256 C315.093,112.4326 316.868,110.0506 319.836,108.7296 C322.802,107.4106 325.676,107.8406 328.12,109.9856 C330.639,112.1946 331.409,115.0166 330.41,118.2406 C329.314,121.7816 325.913,123.9826 322.014,123.5056 C320.664,123.3406 319.766,123.6256 318.854,124.5846 C316.708,126.8456 314.5,129.0506 312.261,131.2206 C311.333,132.1186 310.942,133.0786 310.964,134.3906 C311.038,138.8626 310.983,143.3366 310.998,147.8086 C311,148.4186 311.116,149.0286 311.193,149.7716 C314.085,149.8096 316.827,149.9406 319.639,149.6436 L319.639,144.5896 C319.638,143.7366 319.336,143.1176 318.569,142.6066 C315.992,140.8876 315.079,138.3746 315.313,135.3576 C315.553,132.2786 317.965,129.4346 321.01,128.6826 C324.089,127.9226 327.654,129.1946 329.321,131.6506 C331.784,135.2776 331.174,139.5426 327.812,142.3786 C327.286,142.8216 326.464,143.3406 326.431,143.8656 C326.305,145.8126 326.033,147.8046 326.596,149.7156 L342.044,149.7156 C343.08,146.4716 344.072,143.3646 345.103,140.1366 C342.414,137.4356 339.826,134.7166 337.096,132.1486 C335.714,130.8486 335.01,129.4706 335.036,127.5446 C335.105,122.4266 335.012,117.3056 335.037,112.1866 C335.043,110.9066 334.723,110.0336 333.602,109.1846 C330.164,106.5866 329.56,101.8736 332.035,98.4956 C334.624,94.9646 339.172,94.2356 342.901,96.7566 C346.224,99.0016 347.191,103.6246 344.927,107.1856 C344.177,108.3656 343.006,109.2776 341.723,110.6346 C341.723,115.5366 341.706,120.8846 341.749,126.2296 C341.753,126.7336 342.004,127.3456 342.346,127.7186 C343.901,129.4176 345.531,131.0506 347.439,133.0216 C349.479,126.9056 351.432,121.2216 353.092,115.5196 C347.022,111.8046 347.018,104.6136 352.732,101.0016 C352.771,100.7796 352.849,100.5456 352.851,100.3096 C352.867,98.1496 352.864,95.9906 352.879,93.8316 C352.9,90.6726 353.9,89.6346 357.004,89.5616 C358.103,89.5366 359.203,89.5576 360.425,89.5576 L360.425,84.7586 C356.358,81.4526 355.179,78.1126 356.777,74.3836 C357.427,72.8676 358.472,71.6586 359.908,70.8566 C362.419,69.4556 365.049,69.3696 367.667,70.6226 C367.914,70.0426 368.061,69.7606 368.158,69.4616 C370.637,61.8646 373.127,54.2706 375.563,46.6606 C375.845,45.7816 375.822,44.8056 375.924,44.0046 C372.009,40.9746 370.643,37.8896 371.82,34.3836 C373.341,29.8556 376.904,28.5706 381.406,28.9866 C381.685,28.0726 381.922,27.2916 382.157,26.5206 C381.797,26.4056 381.72,26.3586 381.645,26.3606 C381.405,26.3676 381.165,26.3766 380.929,26.4126 C377.451,26.9366 374.583,25.9456 372.623,22.9296 C372.064,22.0696 371.33,22.1266 370.542,22.1256 C366.622,22.1206 362.702,22.1136 358.783,22.1356 C358.257,22.1376 357.731,22.2946 357.014,22.4106 C357.014,23.4846 357.015,24.4356 357.014,25.3876 C357.01,28.2666 357.066,31.1486 356.981,34.0256 C356.919,36.1386 355.761,37.3616 353.713,37.3976 C349.395,37.4726 345.072,37.4726 340.754,37.3876 C338.912,37.3506 337.831,36.2016 337.604,34.3796 C337.524,33.7486 337.568,33.1016 337.568,32.4626 C337.567,25.6626 337.573,18.8626 337.564,12.0626 C337.563,11.2186 337.488,10.3726 337.44,9.3526 C335.323,9.4256 333.441,9.0466 331.383,9.6706 L331.383,12.3146 C331.389,19.2706 331.401,26.2256 331.398,33.1816 C331.396,36.0976 330.066,37.4376 327.201,37.4406 C323.527,37.4456 319.853,37.4426 316.179,37.4386 C313.293,37.4356 312.135,36.2976 312.119,33.3886 C312.079,26.3506 312.057,19.3126 312.027,12.2746 C312.024,11.4076 312.027,10.5396 312.027,9.5036 L305.816,9.5036 L305.816,12.7776 C305.816,19.7366 305.837,26.6966 305.808,33.6556 C305.796,36.3326 304.672,37.4246 301.996,37.4386 C298.156,37.4596 294.316,37.4466 290.477,37.4186 C287.493,37.3966 286.498,36.3936 286.479,33.3386 C286.452,28.9386 286.478,24.5396 286.479,20.1386 C286.48,16.6416 286.479,13.1446 286.479,9.5406 L282.873,9.5406 L282.873,12.1216 C282.871,14.1216 282.794,16.1246 282.889,18.1196 C283.002,20.4926 281.372,22.2506 278.937,22.1596 C275.023,22.0126 271.1,22.1516 267.18,22.1086 C264.708,22.0826 263.502,20.8756 263.377,18.4636 C263.36,18.1446 263.386,17.8236 263.386,17.5036 C263.389,10.8646 263.353,4.2236 263.421,-2.4144 C263.436,-3.8874 263.076,-4.8674 261.843,-5.8324 C258.708,-8.2814 258.096,-12.5954 260.134,-15.9854 C260.947,-17.3384 261.961,-18.0724 263.67,-17.7834 C266.348,-17.3304 269.052,-17.0294 271.748,-16.6844 C272.8,-16.5494 273.44,-16.0214 273.879,-15.0284 C275.361,-11.6704 274.527,-8.0574 271.403,-5.6074 C270.394,-4.8154 270.048,-4.0214 270.058,-2.8064 C270.104,2.5536 270.071,7.9126 270.089,13.2726 C270.091,13.9556 270.223,14.6376 270.292,15.3036 L276.129,15.3036 C276.129,14.2416 276.128,13.3776 276.129,12.5126 C276.133,10.4326 276.072,8.3506 276.162,6.2736 C276.252,4.1866 277.283,2.8896 279.117,2.8346 C282.792,2.7216 286.475,2.7296 290.149,2.8496 C291.869,2.9066 292.828,4.0636 292.999,5.8346 C293.083,6.7076 293.06,7.5926 293.061,8.4716 C293.064,14.9506 293.062,21.4296 293.062,27.9086 L293.062,30.5926 L299.187,30.5926 C299.187,27.3376 299.184,24.2336 299.187,21.1316 C299.192,16.3326 299.156,11.5326 299.228,6.7346 C299.271,3.7826 300.247,2.8266 303.135,2.7816 C306.894,2.7216 310.653,2.7036 314.412,2.7516 C317.682,2.7926 318.679,3.8276 318.672,7.1286 C318.66,13.5246 318.58,19.9206 318.563,26.3166 C318.561,27.7256 318.705,29.1366 318.789,30.6836 L324.815,30.6836 C324.815,24.6536 324.816,18.7556 324.814,12.8566 C324.813,10.6176 324.752,8.3766 324.815,6.1376 C324.872,4.1286 325.951,2.8386 327.847,2.8016 C332.323,2.7146 336.805,2.7416 341.281,2.8376 C342.825,2.8706 343.77,3.8226 344.082,5.3406 C344.241,6.1126 344.229,6.9296 344.23,7.7246 C344.241,14.4446 344.236,21.1646 344.237,27.8846 C344.237,28.7446 344.236,29.6036 344.236,30.6016 L350.26,30.6016 C350.309,29.5416 350.386,28.5976 350.391,27.6546 C350.407,24.7756 350.354,21.8946 350.41,19.0156 C350.454,16.7596 351.564,15.6496 353.783,15.4876 C354.26,15.4536 354.742,15.4996 355.222,15.5006 C360.102,15.5026 364.981,15.4696 369.86,15.5246 C371.326,15.5426 372.316,15.0976 373.285,13.9046 C376.199,10.3116 381.068,10.0466 384.565,13.1076 C385.012,13.4986 385.458,13.8876 386.11,14.4586 C386.859,12.1526 387.511,10.1446 388.196,8.0356 C299.054,-20.6904 208.072,-31.4304 115.048,-24.3744 C59.303,-20.1464 4.792,-9.3544 -48.562,8.0116 C-47.709,10.6156 -46.923,13.0146 -46.108,15.5046 C-42.215,15.5046 -38.541,15.4506 -34.869,15.5266 C-33.116,15.5636 -31.863,15.2446 -30.611,13.6896 C-27.784,10.1796 -22.622,10.1556 -19.301,13.2926 C-16.374,16.0566 -16.276,21.2246 -19.097,24.1426 C-22.128,27.2786 -27.581,27.6116 -30.2,24.2726 C-31.862,22.1546 -33.635,22.0826 -35.792,22.1146 C-37.792,22.1446 -39.792,22.1076 -41.792,22.1306 C-42.389,22.1366 -42.985,22.2416 -43.908,22.3356 C-40.67,32.3416 -37.506,42.1176 -34.396,51.7296 C-34.001,51.8946 -33.859,51.9846 -33.707,52.0126 C-27.178,53.2306 -25.474,60.4686 -29.025,64.6116 C-29.773,65.4846 -29.707,66.2526 -29.376,67.2436 C-27.555,72.7016 -25.798,78.1796 -24.008,83.6476 C-23.845,84.1456 -23.607,84.6196 -23.405,85.1036 C-23.06,84.2856 -23.062,83.5216 -23.06,82.7586 C-23.052,79.3986 -23.074,76.0386 -23.023,72.6796 C-22.993,70.6536 -21.897,69.3766 -20.161,69.1446 C-18.745,68.9556 -17.711,69.6356 -16.769,70.5786 C-10.325,77.0236 -3.887,83.4746 2.584,89.8916 C3.689,90.9876 4.146,92.2056 4.117,93.7486 C4.054,97.1066 4.138,100.4686 4.084,103.8276 C4.061,105.2706 4.372,106.3066 5.664,107.2636 C8.715,109.5236 9.419,113.8856 7.525,117.2056 C5.662,120.4716 1.511,121.9106 -2.055,120.5256 C-7.464,118.4256 -8.867,111.3496 -4.446,107.6016 C-2.901,106.2926 -2.394,105.0066 -2.492,103.1156 C-2.615,100.7226 -2.548,98.3166 -2.481,95.9186 C-2.449,94.7946 -2.801,93.9776 -3.614,93.1806 C-7.325,89.5436 -10.968,85.8356 -14.653,82.1706 C-15.056,81.7706 -15.57,81.4836 -16.3,80.9486 C-16.3,89.2616 -16.286,97.1786 -16.318,105.0946 C-16.323,106.0556 -15.79,106.4666 -15.13,106.9806 C-12.182,109.2846 -11.172,112.4626 -12.433,115.9336 C-12.88,117.1646 -12.848,118.2036 -12.46,119.3886 C-10.421,125.6166 -8.435,131.8616 -6.419,138.0966 C-5.193,141.8886 -3.947,145.6746 -2.721,149.4306 L11.332,149.4306 C11.213,148.5436 11.082,147.8466 11.034,147.1416 C10.779,143.3796 12.87,138.8336 18.3,138.8526 C21.095,138.8636 22.753,137.8186 24.374,135.9946 C24.85,135.4576 25.426,135.0086 25.903,134.4716 C26.933,133.3156 28.161,132.8446 29.736,132.9226 C31.971,133.0326 34.215,132.9656 36.455,132.9386 C37.059,132.9316 37.661,132.8006 38.223,132.7306 C38.29,132.2896 38.343,132.0546 38.36,131.8176 C38.511,129.7336 38.408,128.0466 36.354,126.4676 C33.208,124.0466 33.123,119.2426 35.578,116.0736 C37.978,112.9766 42.565,112.2386 45.951,114.4036 C50.379,117.2346 50.804,123.5226 46.603,126.8906 C45.277,127.9546 44.901,128.9936 44.96,130.5186 C45.035,132.4346 45.039,134.3606 44.951,136.2766 C44.865,138.1766 43.897,139.2016 42.027,139.5066 C41.324,139.6216 40.593,139.5906 39.874,139.5916 C37.235,139.5956 34.594,139.5436 31.956,139.6066 C31.207,139.6256 30.28,139.7496 29.756,140.1986 C28.493,141.2826 27.409,142.5766 26.285,143.8156 C26.169,143.9436 26.273,144.2706 26.273,144.5066 L26.273,149.5296 L51.199,149.5296 L51.199,146.8206 C51.2,141.0606 51.207,135.3016 51.196,129.5416 C51.193,128.1506 51.337,126.8796 52.447,125.8196 C54.759,123.6106 57.005,121.3326 59.25,119.0556 C60.328,117.9636 61.544,117.5236 63.114,117.5526 C68.232,117.6446 73.353,117.5826 78.472,117.6086 C79.718,117.6146 80.624,117.3866 81.518,116.2436 C84.863,111.9696 90.631,112.1076 94.115,116.3666 C94.455,116.7816 94.816,117.3276 95.276,117.4726 C98.803,118.5926 102.466,115.4626 102.363,112.2736 C102.113,104.5216 102.217,96.7566 102.323,88.9986 C102.349,87.1256 101.607,85.9266 100.418,84.6216 C99.171,83.2546 97.719,83.5496 96.239,83.3926 C94.913,83.2516 94.485,84.1846 93.816,84.9596 C90.429,88.8866 85.012,88.9326 81.721,84.9876 C80.821,83.9076 79.929,83.2136 78.512,83.4106 C76.744,83.6556 75.45,82.8486 74.278,81.6426 C72.384,79.6936 70.425,77.8066 68.54,75.8496 C67.813,75.0956 67.082,74.8006 66.002,74.9586 C62.812,75.4256 60.136,74.4346 58.276,71.7266 C57.507,70.6086 56.633,70.3976 55.25,70.8926 C55.25,72.7226 55.31,74.5546 55.229,76.3796 C55.178,77.5456 55.603,78.2826 56.554,78.9446 C58.751,80.4726 59.724,82.6466 59.664,85.3316 C59.584,88.8696 57.195,91.9966 53.937,92.7226 C50.195,93.5566 46.571,91.9646 44.969,88.7826 C43.364,85.5966 44.084,81.6726 46.722,79.3466 C47.259,78.8746 47.856,78.4706 48.556,77.9336 C48.556,74.7286 48.531,71.4526 48.563,68.1766 C48.593,65.0646 49.642,64.0496 52.789,63.9976 C53.909,63.9776 55.03,63.9556 56.148,63.9966 C58.528,64.0836 58.742,61.3466 60.54,60.6486 C60.895,60.5116 61.306,59.9366 61.306,59.5636 C61.306,57.3706 61.657,55.1486 61.138,53.0796 C59.375,52.3156 58.719,53.4366 57.874,54.4546 C55.043,57.8646 49.711,58.1476 46.527,55.1346 C43.317,52.0946 43.338,46.8236 46.573,43.7666 C49.782,40.7336 55.131,40.9616 57.861,44.4816 C58.908,45.8306 59.987,46.2346 61.516,46.1166 C62.231,46.0616 62.955,46.1016 63.674,46.1086 C66.931,46.1376 67.975,47.1616 68.004,50.4036 C68.029,53.1236 68.034,55.8446 68.01,58.5636 C68,59.5766 68.18,60.3476 69.145,60.9836 C71.902,62.8026 72.924,65.5256 72.395,68.6846 C72.197,69.8606 72.55,70.4686 73.266,71.1646 C74.757,72.6126 76.213,74.0956 77.69,75.5586 C79.411,77.2636 79.925,77.2386 81.503,75.3946 C85.256,71.0126 90.924,71.2406 94.38,75.9146 C94.567,76.1676 94.76,76.4146 95.042,76.7846 C96.587,76.7846 98.183,76.8246 99.775,76.7726 C101.23,76.7246 102.415,77.1916 103.423,78.2476 C104.694,79.5766 105.985,80.8906 107.336,82.1376 C108.545,83.2536 109.006,84.5766 109.002,86.1986 C108.978,95.7976 108.984,105.3966 109.015,114.9966 C109.02,116.5436 108.5,117.7756 107.38,118.8276 C106.098,120.0306 104.826,121.2526 103.636,122.5456 C102.47,123.8136 101.124,124.4206 99.388,124.3196 C97.88,124.2316 96.363,124.3016 94.972,124.3016 C90.323,130.2986 85.631,130.2886 80.434,124.4106 C80.208,124.3826 79.97,124.3276 79.733,124.3266 C76.293,124.3136 72.854,124.2836 69.414,124.3106 C67.427,124.3266 65.221,123.9226 63.515,124.6496 C61.8,125.3826 60.628,127.3346 59.132,128.6526 C58.081,129.5786 57.697,130.6216 57.714,132.0116 C57.775,137.2106 57.732,142.4096 57.747,147.6096 C57.749,148.2186 57.868,148.8266 57.941,149.5076 L64.029,149.5076 C62.903,145.5506 65.361,143.3976 67.741,141.2026 C68.093,140.8786 68.438,140.5386 68.743,140.1696 C70.116,138.5046 71.838,137.7636 74.018,137.9306 C75.529,138.0466 77.057,137.9456 78.576,137.9776 C79.841,138.0046 80.801,137.6946 81.621,136.5406 C83.167,134.3656 85.494,133.4546 88.107,133.5646 C91.789,133.7216 94.652,136.2766 95.345,139.8036 C96.041,143.3486 94.324,146.8166 91.096,148.3836 C87.92,149.9256 84.04,149.1976 81.791,146.2996 C80.758,144.9686 79.689,144.5056 78.15,144.6236 C77.435,144.6786 76.696,144.7266 75.994,144.6166 C73.327,144.1966 72.217,146.2836 70.816,147.8356 C70.532,148.1496 70.699,148.8716 70.659,149.3896 C73.545,149.9266 225.863,149.8756 227.564,149.3596 C227.564,147.6926 227.527,146.0196 227.573,144.3496 C227.637,142.0206 228.768,140.8326 231.064,140.6116 C231.54,140.5666 232.023,140.5936 232.504,140.5936 C239.143,140.5946 245.784,140.5326 252.422,140.6396 C254.333,140.6716 255.747,140.2216 257.011,138.7246 C258.02,137.5286 259.247,136.2576 260.646,135.7236 C261.865,135.2596 262.619,134.5966 263.406,133.7006 C266.36,130.3306 271.498,130.1296 274.776,133.2066 C277.857,136.0976 277.835,141.3456 274.729,144.4146 C271.686,147.4226 266.564,147.2746 263.55,144.0636 C263.18,143.6706 262.965,143.1326 262.381,142.1736 C261.316,143.5036 260.67,144.3186 260.017,145.1276 C258.71,146.7446 257.054,147.2906 254.954,147.2506 C248.716,147.1326 242.476,147.1936 236.235,147.2046 C235.626,147.2056 235.017,147.3416 234.26,147.4316 C234.332,148.2686 234.39,148.9376 234.452,149.6666 L281.185,149.6666 C281.227,148.8096 281.29,148.1066 281.291,147.4046 C281.301,141.4046 281.328,135.4046 281.283,129.4056 C281.271,127.8636 281.71,126.6796 282.858,125.5886 C285.579,123.0006 288.176,120.2806 290.835,117.6266 C308.32,100.1796 325.797,82.7246 343.314,65.3106 C345.048,63.5866 346.282,62.0286 346.077,59.2246 C345.803,55.4826 348.808,52.5156 352.447,52.0346 C356.521,51.4946 359.806,53.5456 361.126,57.2286 C362.767,61.8106 359.178,67.8516 353.307,67.3136 C351.405,67.1396 350.221,67.7676 348.957,69.0476 C342.216,75.8746 335.392,82.6186 328.604,89.3976 C315.477,102.5086 302.358,115.6276 289.215,128.7206 C288.437,129.4976 287.947,130.2516 287.956,131.4046 C288.003,137.2436 287.985,143.0836 288.002,148.9236 C288.003,149.1406 288.138,149.3576 288.25,149.6976 L304.352,149.6976 Z M424.592,-103.4684 C432.72,-128.4024 440.711,-152.9174 448.724,-177.5004 C355.766,-245.1644 262.994,-312.6924 170.148,-380.2744 C77.11,-312.8254 -15.792,-245.4754 -108.821,-178.0334 C-100.781,-153.2164 -92.786,-128.5374 -84.709,-103.6044 C-1.837,-130.4614 82.994,-143.8234 169.815,-143.8154 C256.718,-143.8064 341.618,-130.3914 424.592,-103.4684 L424.592,-103.4684 Z M139.8955,-235.1544 C137.7405,-235.2594 136.0015,-235.3484 134.2625,-235.4284 C133.5445,-235.4624 132.8105,-235.3934 132.1115,-235.5224 C130.9635,-235.7334 130.6125,-236.3604 131.0315,-237.4284 C131.2915,-238.0924 131.7055,-238.6964 132.0645,-239.3194 C137.2135,-248.2554 142.3665,-257.1894 147.5125,-266.1274 C147.8995,-266.8004 148.2365,-267.5024 148.6255,-268.2454 C145.6415,-269.7084 142.5145,-268.6624 139.5765,-269.2454 C139.9835,-271.0704 165.4735,-313.1834 169.9065,-319.3624 C175.1105,-311.0184 180.1235,-302.7214 185.1925,-294.4604 C190.2445,-286.2284 195.2835,-277.9874 200.5185,-269.4404 C197.2835,-268.5194 194.0525,-269.7734 191.0165,-268.2354 C191.6135,-267.1514 192.1605,-266.1124 192.7465,-265.0954 C197.7385,-256.4384 202.7475,-247.7904 207.7175,-239.1204 C208.2435,-238.2034 209.4765,-237.1374 208.5365,-236.1634 C207.9165,-235.5214 206.5075,-235.5534 205.4355,-235.4524 C203.6995,-235.2904 201.9505,-235.2674 199.7755,-235.1654 C203.3585,-228.6414 206.7685,-222.4304 210.1805,-216.2204 C213.5635,-210.0654 216.9495,-203.9114 220.5165,-197.4244 C216.2395,-196.3874 212.0505,-197.5704 207.7495,-196.3734 C210.6645,-190.6864 213.9545,-185.2654 217.0385,-179.7354 C220.1415,-174.1724 223.3025,-168.6424 226.6785,-162.6724 L186.2415,-162.6724 L186.2415,-146.1314 L153.5225,-146.1314 L153.5225,-162.6264 L112.9845,-162.6264 C119.4755,-174.1124 125.7065,-185.1394 132.0415,-196.3514 C127.8245,-197.4664 123.6525,-196.6254 119.1875,-197.2084 C122.5465,-203.8724 126.1135,-209.9814 129.4935,-216.1884 C132.8845,-222.4144 136.3115,-228.6224 139.8955,-235.1544 M-122.722,-182.5764 C-24.978,-253.4374 72.526,-324.1234 170.163,-394.9064 C267.664,-323.9354 365.085,-253.0224 462.64,-182.0124 C425.251,-67.3404 387.906,47.2036 350.604,161.6126 L-11.236,161.6126 C-48.406,46.8576 -85.529,-67.7494 -122.722,-182.5764 L-122.722,-182.5764 Z M23.5713,-206.4498 C22.0293,-203.7268 2.7103,-149.9578 2.6213,-148.2918 C5.8203,-148.3938 63.2123,-159.7518 64.8003,-160.6548 C51.0613,-175.9148 37.3473,-191.1468 23.5713,-206.4498 M18.4533,-215.2418 C16.0223,-227.7348 13.6443,-239.9528 11.2113,-252.4578 C13.2623,-252.8688 15.1723,-253.2528 17.3823,-253.6968 C19.8353,-241.1928 22.2423,-228.9248 24.6713,-216.5438 C25.3883,-216.6188 25.9303,-216.6348 26.4553,-216.7368 C36.3413,-218.6608 46.2233,-220.5958 56.1073,-222.5278 C56.8143,-222.6658 57.5203,-222.8068 58.2313,-222.9118 C60.3973,-223.2308 61.8363,-222.3368 62.2173,-220.4568 C62.5683,-218.7248 61.6183,-217.2968 59.5733,-216.8318 C56.6143,-216.1578 53.6233,-215.6188 50.6433,-215.0378 C43.8203,-213.7078 36.9933,-212.3898 30.1703,-211.0588 C29.7043,-210.9678 29.2523,-210.8118 28.4293,-210.5858 C29.1473,-209.7328 29.7093,-209.0248 30.3133,-208.3538 C42.0273,-195.3428 53.7473,-182.3368 65.4653,-169.3278 C67.8183,-166.7148 70.1623,-164.0928 72.5113,-161.4758 C72.7783,-161.1788 73.0703,-160.9008 73.3153,-160.5858 C75.2303,-158.1258 74.3733,-155.6888 71.3213,-155.0488 C68.0363,-154.3608 64.7353,-153.7528 61.4413,-153.1088 C54.1483,-151.6808 46.8553,-150.2538 39.5623,-148.8208 C39.1033,-148.7308 38.6553,-148.5858 37.9943,-148.4108 C38.7613,-144.3638 39.5133,-140.3908 40.3213,-136.1328 C38.3003,-135.7528 36.3873,-135.3928 34.1873,-134.9788 C33.3583,-139.0608 32.5533,-143.0208 31.6953,-147.2418 C29.0173,-146.7468 26.4563,-146.2968 23.9053,-145.7988 C15.5123,-144.1628 7.1243,-142.5078 -1.2667,-140.8658 C-4.8777,-140.1598 -6.6607,-142.1958 -5.4097,-145.6868 C-1.7687,-155.8378 1.9183,-165.9718 5.5863,-176.1138 C9.2283,-186.1798 12.8693,-196.2468 16.5063,-206.3148 C16.7173,-206.9008 16.8783,-207.5048 17.1403,-208.3558 C16.2513,-208.2358 15.5563,-208.1788 14.8773,-208.0468 C5.7003,-206.2588 -3.4747,-204.4568 -12.6517,-202.6688 C-13.3557,-202.5318 -14.0757,-202.3938 -14.7877,-202.3948 C-16.3737,-202.3978 -17.5987,-203.4348 -17.8647,-204.8938 C-18.1407,-206.4118 -17.4417,-207.8048 -15.9107,-208.3248 C-14.6337,-208.7578 -13.2767,-208.9708 -11.9457,-209.2308 C-2.6107,-211.0538 6.7283,-212.8628 16.0633,-214.6818 C16.7583,-214.8178 17.4423,-215.0038 18.4533,-215.2418 Z M290.5234,-185.2619 C290.9504,-187.4389 291.3774,-189.5289 291.7654,-191.6249 C292.7414,-196.8899 293.6604,-202.1659 294.6854,-207.4209 C295.0124,-209.0959 294.7664,-210.4349 293.7294,-211.8709 C290.2654,-216.6679 286.9584,-221.5779 283.5954,-226.4489 C283.1464,-227.0979 282.7254,-227.7669 282.1684,-228.6159 C283.0824,-229.2449 283.9034,-229.8109 284.8704,-230.4769 C289.3234,-224.0449 293.6784,-217.7529 298.1664,-211.2699 C304.4234,-215.5769 310.5244,-219.7759 316.8484,-224.1279 C317.4834,-223.2619 318.0754,-222.4549 318.7824,-221.4909 C317.9904,-220.9119 317.3094,-220.3899 316.6054,-219.9039 C311.6704,-216.4939 306.7614,-213.0449 301.7714,-209.7179 C300.4454,-208.8329 299.8514,-207.7579 299.5874,-206.2529 C298.4174,-199.5619 297.1964,-192.8789 295.9344,-186.2039 C295.7264,-185.1069 295.8234,-184.2309 296.4784,-183.2889 C303.2834,-173.5059 310.0484,-163.6959 316.8294,-153.8959 C317.0064,-153.6389 317.2374,-153.4199 317.5324,-153.0789 C318.1644,-153.4669 318.7764,-153.8039 319.3484,-154.1989 C328.6984,-160.6459 338.0294,-167.1189 347.4024,-173.5319 C348.6154,-174.3619 349.2684,-175.2879 349.5214,-176.7669 C350.6524,-183.3839 351.8804,-189.9849 353.1454,-196.5769 C353.4194,-198.0089 353.2334,-199.1509 352.3684,-200.3739 C348.4444,-205.9219 344.6154,-211.5359 340.5724,-217.3879 C341.4184,-218.0129 342.2114,-218.5979 343.2574,-219.3699 C347.5904,-213.1129 351.8464,-206.9669 356.2234,-200.6459 C362.6824,-205.0989 368.9714,-209.4339 375.4274,-213.8849 C376.0924,-212.9829 376.6464,-212.2329 377.3524,-211.2759 C376.6824,-210.7679 376.0864,-210.2799 375.4544,-209.8419 C370.3244,-206.2919 365.2064,-202.7249 360.0394,-199.2299 C359.0234,-198.5439 358.4894,-197.7369 358.2774,-196.5569 C356.9944,-189.3979 355.6664,-182.2479 354.3724,-175.0909 C354.2894,-174.6339 354.3614,-174.1479 354.3614,-173.4709 C358.0944,-172.7749 361.8484,-172.0699 365.6034,-171.3769 C368.7474,-170.7969 371.9064,-170.2919 375.0334,-169.6309 C376.4674,-169.3279 377.6054,-169.5259 378.8274,-170.3909 C383.7844,-173.9079 388.8104,-177.3279 393.8154,-180.7769 C394.4604,-181.2209 395.1304,-181.6249 395.9374,-182.1429 C396.5554,-181.2779 397.0974,-180.5189 397.8204,-179.5059 C391.5634,-175.1649 385.4254,-170.9059 379.1234,-166.5329 C383.5704,-160.0859 387.9104,-153.7949 392.3844,-147.3079 C391.4274,-146.6509 390.6074,-146.0879 389.6904,-145.4589 C389.1204,-146.2379 388.6404,-146.8629 388.1914,-147.5109 C384.7304,-152.5069 381.2434,-157.4859 377.8394,-162.5219 C377.0654,-163.6679 376.1694,-164.3059 374.8074,-164.5479 C367.0174,-165.9299 359.2354,-167.3569 351.4594,-168.8119 C350.3484,-169.0199 349.4754,-168.8039 348.5544,-168.1629 C340.0164,-162.2309 331.4614,-156.3209 322.8854,-150.4439 C321.8854,-149.7589 321.3484,-148.9779 321.1464,-147.7629 C320.3994,-143.2699 319.5484,-138.7939 318.7244,-134.3139 C318.6394,-133.8529 318.4734,-133.4079 318.2764,-132.7119 C315.4194,-133.2009 312.6174,-133.6809 309.5154,-134.2139 C309.9404,-136.7059 310.3244,-139.0399 310.7404,-141.3669 C311.2334,-144.1209 311.7044,-146.8799 312.2914,-149.6139 C312.5134,-150.6529 312.3194,-151.4379 311.7274,-152.2889 C305.7494,-160.8929 299.7744,-169.4999 293.8774,-178.1589 C293.0944,-179.3089 292.0964,-179.6559 290.9084,-179.8719 C284.6184,-181.0209 278.3284,-182.1649 272.0374,-183.3079 C270.7014,-183.5509 269.3264,-183.6619 268.0324,-184.0469 C266.6394,-184.4619 265.6024,-184.0539 264.4864,-183.2689 C259.5124,-179.7749 254.4974,-176.3419 249.4934,-172.8909 C248.8404,-172.4419 248.1694,-172.0209 247.3534,-171.4869 C246.7524,-172.3249 246.2054,-173.0869 245.4534,-174.1349 C251.8344,-178.6419 258.2284,-182.9439 264.6914,-187.4759 C260.3754,-193.7309 256.1604,-199.8359 251.8034,-206.1479 C252.7154,-206.7969 253.5184,-207.3679 254.4534,-208.0329 C255.0354,-207.2519 255.5214,-206.6399 255.9644,-205.9999 C259.3354,-201.1349 262.7384,-196.2919 266.0344,-191.3769 C266.9864,-189.9569 268.0454,-189.1609 269.8014,-188.8699 C276.2654,-187.7979 282.6974,-186.5339 289.1434,-185.3529 C289.5224,-185.2829 289.9174,-185.2989 290.5234,-185.2619 Z M-36.0728,-178.1769 C-32.2088,-177.1019 -28.6778,-176.1179 -25.1468,-175.1379 C-20.4578,-173.8369 -15.7668,-172.5379 -11.0788,-171.2349 C-10.6168,-171.1069 -10.1508,-170.9829 -9.7088,-170.8019 C-8.0318,-170.1119 -7.2428,-168.5839 -7.6948,-166.9529 C-8.1198,-165.4189 -9.7468,-164.4289 -11.4808,-164.8269 C-13.4218,-165.2729 -15.3258,-165.8809 -17.2468,-166.4129 C-23.4008,-168.1159 -29.5538,-169.8209 -35.7108,-171.5129 C-36.2938,-171.6729 -36.9008,-171.7479 -37.7448,-171.9099 C-37.3198,-170.9999 -36.9758,-170.3809 -36.7358,-169.7249 C-36.1798,-168.2119 -36.8148,-166.5609 -38.1818,-165.8379 C-39.4678,-165.1569 -41.0568,-165.4859 -42.0588,-166.6879 C-42.4128,-167.1129 -42.6908,-167.6079 -42.9648,-168.0929 C-44.3398,-170.5249 -45.7438,-172.9419 -47.0578,-175.4069 C-48.1478,-177.4519 -47.7858,-178.9179 -45.8338,-180.0869 C-43.0948,-181.7269 -40.3138,-183.3029 -37.4928,-184.7969 C-35.6968,-185.7479 -34.0838,-185.2319 -33.1628,-183.6309 C-32.3318,-182.1909 -32.7508,-180.6139 -34.2828,-179.4569 C-34.7738,-179.0869 -35.2828,-178.7399 -36.0728,-178.1769 Z M-32.666,-195.3512 C-32.297,-194.4932 -32.037,-193.9472 -31.823,-193.3832 C-31.158,-191.6282 -31.7,-189.9752 -33.156,-189.2582 C-34.645,-188.5242 -36.419,-188.9772 -37.32,-190.4952 C-38.992,-193.3082 -40.619,-196.1502 -42.16,-199.0372 C-43.112,-200.8192 -42.718,-202.3082 -40.98,-203.3632 C-38.184,-205.0602 -35.323,-206.6582 -32.443,-208.2112 C-30.848,-209.0722 -29.11,-208.5972 -28.23,-207.2392 C-27.278,-205.7692 -27.684,-204.0482 -29.279,-202.8692 C-29.724,-202.5402 -30.202,-202.2572 -30.929,-201.7792 C-30.225,-201.4942 -29.714,-201.2272 -29.172,-201.0762 C-21.64,-198.9692 -14.103,-196.8802 -6.57,-194.7792 C-5.802,-194.5652 -5.009,-194.3822 -4.299,-194.0372 C-2.859,-193.3352 -2.246,-191.8892 -2.667,-190.4582 C-3.144,-188.8392 -4.427,-187.9492 -6.113,-188.1832 C-6.978,-188.3032 -7.821,-188.5832 -8.667,-188.8182 C-15.894,-190.8282 -23.118,-192.8482 -30.346,-194.8532 C-31.009,-195.0372 -31.694,-195.1442 -32.666,-195.3512 Z M90.0937,59.6595 C90.0947,58.3975 88.8767,57.2165 87.6087,57.2495 C86.4357,57.2785 85.3857,58.3735 85.3457,59.6075 C85.3017,60.9545 86.3917,61.9995 87.7917,61.9535 C89.0347,61.9125 90.0937,60.8575 90.0937,59.6595 M87.7297,102.8485 C88.9207,102.8235 90.0477,101.7335 90.0927,100.5625 C90.1407,99.2985 88.9467,98.0875 87.6567,98.0945 C86.3897,98.1015 85.2627,99.3415 85.3417,100.6405 C85.4157,101.8565 86.5167,102.8745 87.7297,102.8485 M84.4347,37.5595 L40.0837,37.5595 C40.0127,38.1535 39.8787,38.7585 39.8787,39.3625 C39.8667,56.1575 39.8777,72.9535 39.8497,89.7485 C39.8477,90.8715 40.1147,91.7535 40.9647,92.4975 C41.6857,93.1285 42.4327,93.7655 42.9997,94.5265 C44.6327,96.7195 46.7237,97.3045 49.4367,97.2555 C58.7917,97.0855 68.1507,97.1485 77.5087,97.2125 C79.3767,97.2245 80.7177,96.8725 82.0157,95.2765 C84.1247,92.6855 87.1107,92.0685 90.2867,93.1645 C93.3697,94.2275 95.1657,96.4905 95.4677,99.7295 C95.7687,102.9535 94.4707,105.5005 91.6597,107.1885 C88.4317,109.1285 83.9437,108.4465 81.7247,105.4105 C80.7107,104.0205 79.6257,103.7635 78.1037,103.7685 C67.3867,103.8085 56.6687,103.7395 45.9527,103.8335 C43.6877,103.8525 41.9747,103.2285 40.4717,101.5385 C38.8267,99.6885 37.0667,97.9245 35.2137,96.2845 C33.6987,94.9425 33.1667,93.4005 33.1837,91.4255 C33.2497,83.6675 33.2167,75.9095 33.2177,68.1515 C33.2187,57.2755 33.2077,46.3995 33.2317,35.5235 C33.2347,34.5815 33.2667,33.5565 33.6227,32.7145 C34.3497,30.9955 35.9277,30.7275 37.6307,30.7345 C44.9887,30.7605 52.3467,30.7465 59.7047,30.7475 C68.4227,30.7475 77.1397,30.7475 85.8577,30.7495 C86.4967,30.7495 87.1437,30.7105 87.7747,30.7865 C89.7327,31.0225 90.7727,32.0835 90.9807,34.0595 C91.0557,34.7725 91.0207,35.4985 91.0217,36.2185 C91.0247,40.8565 91.0567,45.4955 91.0047,50.1345 C90.9877,51.6645 91.3227,52.7515 92.6897,53.7635 C95.4697,55.8225 96.2797,59.7725 94.8907,62.8545 C93.4857,65.9735 90.2447,67.7335 86.6307,67.3405 C83.3147,66.9785 80.5817,64.4005 80.0537,60.9785 C79.5917,57.9815 80.5097,55.3825 82.9457,53.5535 C84.1267,52.6665 84.4807,51.7115 84.4587,50.3225 C84.3927,46.1745 84.4347,42.0225 84.4347,37.5595 M151.418,59.6732 C151.474,58.5012 150.443,57.3392 149.255,57.2352 C147.977,57.1232 146.793,58.1942 146.707,59.5402 C146.63,60.7412 147.606,61.8232 148.867,61.9362 C150.163,62.0512 151.356,60.9942 151.418,59.6732 L151.418,59.6732 Z M145.8,-13.4588 L121.695,-13.4588 C121.695,-11.4168 121.694,-9.5148 121.695,-7.6118 C121.697,-5.8528 121.714,-4.0948 121.702,-2.3348 C121.682,0.5012 120.634,1.6032 117.81,1.6102 C108.374,1.6372 98.938,1.6292 89.502,1.6302 C81.585,1.6322 73.669,1.5892 65.753,1.6572 C64.022,1.6722 62.673,1.2382 61.503,-0.0568 C60.272,-1.4198 58.803,-2.5708 57.631,-3.9758 C56.958,-4.7828 56.345,-5.8858 56.269,-6.8968 C56.077,-9.4358 56.205,-11.9998 56.205,-14.8838 C58.334,-15.2548 60.404,-15.6158 62.841,-16.0408 C62.879,-14.1508 63.077,-12.5038 62.905,-10.8958 C62.662,-8.6408 63.532,-7.0068 65.281,-5.7958 C65.952,-5.3308 66.835,-4.9188 67.623,-4.9158 C82.975,-4.8618 98.328,-4.8708 113.681,-4.8728 C113.996,-4.8728 114.312,-4.9518 114.877,-5.0278 C114.929,-5.7798 115.022,-6.5488 115.028,-7.3178 C115.052,-10.2758 115.009,-13.2358 115.065,-16.1928 C115.123,-19.1618 116.181,-20.2208 119.178,-20.2288 C128.934,-20.2568 138.69,-20.2558 148.446,-20.2238 C151.302,-20.2158 152.338,-19.1478 152.34,-16.2888 C152.348,4.8212 152.337,25.9312 152.333,47.0412 C152.333,47.7602 152.411,48.4882 152.323,49.1952 C152.067,51.2612 152.67,52.6982 154.45,54.0692 C157.299,56.2662 157.718,60.4392 155.786,63.6592 C153.698,67.1392 150.161,68.0542 146.633,67.0442 C143.182,66.0572 141.086,62.6872 141.36,59.0972 C141.527,56.9052 142.338,54.9612 144.109,53.7262 C145.592,52.6912 145.825,51.4562 145.822,49.8442 C145.787,31.5312 145.8,13.2202 145.8,-5.0928 L145.8,-13.4588 Z M110.4824,59.6312 C110.4864,58.4012 109.4794,57.3242 108.2664,57.2642 C107.0074,57.2012 105.7594,58.3752 105.7594,59.6232 C105.7584,60.9262 106.9164,62.0052 108.2564,61.9512 C109.5244,61.9012 110.4784,60.9062 110.4824,59.6312 M-18.6876,1.4592 C-16.2316,0.8072 -14.2246,0.3142 -12.2436,-0.2698 C-11.2616,-0.5588 -10.7476,0.0292 -10.1836,0.5882 C-7.7966,2.9492 -5.4146,5.3162 -3.0366,7.6862 C-1.7906,8.9272 -0.4996,10.1292 0.6634,11.4442 C1.6464,12.5572 2.7534,12.9532 4.2374,12.9442 C13.6754,12.8852 23.1144,12.9472 32.5514,12.8772 C34.4444,12.8622 35.9324,13.2932 37.2234,14.7522 C38.7034,16.4252 40.3984,17.9042 41.9564,19.5092 C42.7204,20.2952 43.5324,20.6722 44.6754,20.6602 C50.2744,20.6032 55.8734,20.6082 61.4714,20.6552 C62.6834,20.6662 63.5914,20.3332 64.4314,19.4422 C66.0754,17.6952 67.8544,16.0772 69.5064,14.3392 C70.4614,13.3332 71.5524,12.9162 72.9154,12.9182 C83.6334,12.9322 94.3514,12.9252 105.0694,12.9022 C106.3404,12.9002 107.4134,13.2222 108.2914,14.1822 C108.9384,14.8892 109.6604,15.5272 110.3394,16.2042 C111.1134,16.9762 111.4584,17.8882 111.4494,19.0072 C111.4244,22.4402 111.4714,25.8732 111.4844,29.3072 C111.5004,33.6962 111.5134,38.0862 111.5214,42.4762 C111.5274,45.7462 111.5224,49.0172 111.5224,52.3712 C112.0744,52.8202 112.6294,53.2582 113.1694,53.7142 C116.6184,56.6302 116.9284,61.7402 113.8574,65.0102 C110.9014,68.1582 105.6314,68.2582 102.6614,65.2212 C99.5074,61.9952 99.5664,56.7422 103.0384,53.9082 C104.4614,52.7462 104.8794,51.5752 104.8574,49.8632 C104.7724,43.4782 104.7984,37.0902 104.7944,30.7022 C104.7924,27.6712 104.8474,24.6402 104.8134,21.6092 C104.7934,19.8582 104.6284,19.6672 102.8574,19.6612 C93.5794,19.6302 84.3014,19.6602 75.0234,19.6202 C74.0324,19.6152 73.3574,20.0032 72.7194,20.6492 C71.1474,22.2412 69.5214,23.7842 68.0024,25.4272 C66.8384,26.6862 65.4954,27.3132 63.7784,27.3072 C56.6594,27.2852 49.5414,27.2882 42.4224,27.3162 C40.9614,27.3212 39.8074,26.8092 38.8034,25.7692 C37.3594,24.2732 35.8104,22.8762 34.3994,21.3512 C33.2374,20.0932 31.9544,19.5792 30.1934,19.5972 C21.0094,19.6842 11.8244,19.5822 2.6404,19.6762 C0.3824,19.6992 -1.3146,19.0292 -2.8856,17.4172 C-7.4046,12.7782 -12.0346,8.2492 -16.6146,3.6702 C-17.2276,3.0572 -17.8036,2.4042 -18.6876,1.4592 M320.252,59.5824 C320.23,58.4064 319.119,57.2674 317.965,57.2344 C316.706,57.1984 315.471,58.4014 315.486,59.6474 C315.502,60.9534 316.658,61.9994 318.028,61.9484 C319.197,61.9044 320.275,60.7584 320.252,59.5824 L320.252,59.5824 Z M190.126,77.7594 C188.764,77.6934 187.798,78.5134 187.684,79.8294 C187.562,81.2274 188.52,82.3534 189.891,82.4274 C191.182,82.4954 192.39,81.3534 192.393,80.0624 C192.396,78.7874 191.445,77.8224 190.126,77.7594 L190.126,77.7594 Z M310.697,56.3364 C312.823,52.9604 315.57,51.4274 319.345,52.0774 C322.738,52.6634 325.104,55.0994 325.558,58.4764 C326.035,62.0224 324.454,65.1124 321.383,66.6374 C318.389,68.1224 314.532,67.4784 312.297,65.1144 C312.077,64.8824 311.804,64.6614 311.686,64.3804 C311.111,63.0144 309.971,62.9164 308.717,62.9184 C301.118,62.9324 293.52,62.9214 285.921,62.9204 C274.082,62.9204 262.243,62.9444 250.405,62.8964 C248.627,62.8894 247.249,63.2704 245.964,64.6464 C243.072,67.7414 239.908,70.5814 237.021,73.6804 C235.505,75.3054 233.823,75.8454 231.695,75.8014 C227.458,75.7134 223.217,75.8194 218.979,75.7474 C217.503,75.7234 216.414,76.1654 215.423,77.2694 C214.037,78.8124 212.446,80.1704 211.038,81.6944 C209.861,82.9694 208.511,83.5004 206.78,83.4324 C204.384,83.3384 201.981,83.4584 199.582,83.3904 C198.053,83.3474 196.979,83.7534 195.928,85.0464 C192.672,89.0524 186.689,88.7904 183.725,84.6824 C181.335,81.3694 181.926,76.5654 185.027,74.0774 C188.324,71.4344 193.232,71.6714 195.797,74.9594 C197.033,76.5444 198.318,76.9404 200.076,76.8004 C200.633,76.7564 201.195,76.7934 201.756,76.7934 C206.531,76.7924 206.725,76.9564 209.748,73.3904 C212.512,70.1304 215.577,68.5864 219.925,69.0434 C223.405,69.4084 226.956,69.0754 230.476,69.1174 C231.599,69.1314 232.402,68.7724 233.198,67.9594 C236.44,64.6434 239.797,61.4374 243.034,58.1164 C244.303,56.8144 245.682,56.3114 247.506,56.3154 C267.342,56.3644 287.178,56.3404 307.013,56.3364 L310.697,56.3364 Z M189.8359,143.6332 C191.1899,143.7112 192.3729,142.6592 192.3819,141.3702 C192.3919,140.0982 191.4549,139.0972 190.1749,139.0122 C188.7669,138.9182 187.7079,139.8792 187.6789,141.2792 C187.6509,142.6182 188.5109,143.5582 189.8359,143.6332 M269.2869,123.2662 C270.4669,123.2792 271.6009,122.2032 271.6689,121.0082 C271.7429,119.6962 270.6279,118.5642 269.2679,118.5722 C268.0289,118.5802 266.9509,119.5882 266.8819,120.8012 C266.8089,122.0822 267.9499,123.2532 269.2869,123.2662 M221.3929,134.3432 C221.3929,136.4582 221.3419,138.1212 221.4019,139.7812 C221.5399,143.5532 220.5229,144.6442 216.6659,144.6522 C211.1579,144.6622 205.6489,144.6932 200.1419,144.6052 C198.2589,144.5742 196.9619,145.0922 195.6589,146.6092 C193.5139,149.1092 190.5859,149.8982 187.3809,148.6922 C184.3349,147.5462 182.5949,145.2912 182.2989,142.0362 C181.9909,138.6602 183.4239,136.1372 186.3429,134.4822 C189.4429,132.7222 193.4109,133.3832 195.8819,136.3352 C196.9469,137.6092 198.0319,138.0002 199.5519,137.9872 C204.4969,137.9462 209.4419,137.9722 214.5699,137.9722 C214.6549,137.4842 214.8069,136.9702 214.8239,136.4512 C214.8829,134.6952 214.8529,132.9372 214.9349,131.1822 C215.0349,129.0332 216.0229,128.0302 218.1899,127.8082 C218.8229,127.7422 219.4689,127.7822 220.1079,127.7822 C229.2279,127.7812 238.3459,127.7812 247.4649,127.7802 L250.6019,127.7802 C250.6019,125.7392 250.5859,123.9252 250.6049,122.1112 C250.6419,118.5912 251.6829,117.5812 255.2319,117.5872 C256.8319,117.5902 258.4349,117.5362 260.0299,117.6152 C261.4219,117.6852 262.3159,117.2022 263.2379,116.0732 C267.1499,111.2852 274.5309,112.5712 276.6499,118.3162 C277.9069,121.7222 276.5379,125.6422 273.4359,127.5242 C270.3149,129.4162 265.8569,129.1532 263.8099,126.3472 C262.0529,123.9422 260.0119,124.2412 257.5409,124.4442 C257.4669,125.0642 257.3439,125.6692 257.3309,126.2782 C257.3009,127.7162 257.3599,129.1582 257.3149,130.5962 C257.2299,133.2542 256.1099,134.3662 253.4799,134.4302 C252.1209,134.4622 250.7609,134.4242 249.4009,134.4192 C241.6449,134.3942 233.8879,134.3672 226.1309,134.3442 C224.6979,134.3392 223.2659,134.3432 221.3929,134.3432 M-19.7461,38.9447 C-18.3431,38.9527 -17.3191,37.9117 -17.3791,36.5387 C-17.4331,35.3217 -18.4981,34.3037 -19.7331,34.2937 C-20.9871,34.2817 -22.2001,35.5257 -22.1411,36.7607 C-22.0841,37.9507 -21.0011,38.9367 -19.7461,38.9447 M21.2779,110.8757 C19.9829,110.8467 18.7879,112.0077 18.8039,113.2787 C18.8189,114.4357 19.9309,115.5637 21.1079,115.6167 C22.3709,115.6737 23.5489,114.4957 23.5359,113.1917 C23.5229,111.9267 22.5239,110.9027 21.2779,110.8757 M-16.1781,43.8297 C-16.2141,43.9967 -16.2431,44.0737 -16.2471,44.1527 C-16.5991,50.5757 -16.4521,50.6487 -11.5551,55.4837 C-0.0041,66.8837 11.4529,78.3817 22.9759,89.8097 C24.1529,90.9767 24.5789,92.2637 24.5509,93.8867 C24.4799,97.9607 24.5279,102.0357 24.5279,105.6237 C25.9089,107.1797 27.2409,108.2657 28.0359,109.6587 C30.1439,113.3527 28.9209,117.5727 25.3039,119.8797 C21.9419,122.0237 17.3799,121.1817 15.0209,117.9827 C12.5159,114.5847 12.9079,110.0897 16.1579,107.4477 C17.4849,106.3687 18.0129,105.2617 17.9329,103.5957 C17.8049,100.9637 17.8319,98.3197 17.8779,95.6827 C17.8969,94.6337 17.5469,93.8777 16.8169,93.1507 C6.1579,82.5527 -4.4811,71.9367 -15.1241,61.3237 C-17.2191,59.2357 -19.2801,57.1117 -21.4151,55.0657 C-22.5961,53.9337 -23.1491,52.6497 -23.0751,51.0107 C-22.9981,49.3357 -23.1381,47.6487 -23.0321,45.9757 C-22.9441,44.5717 -23.3491,43.6687 -24.5461,42.7817 C-27.1591,40.8467 -28.1671,37.3437 -27.1671,34.3897 C-26.0921,31.2137 -23.8581,29.3747 -20.5041,28.9767 C-17.1981,28.5857 -13.8941,30.5037 -12.5391,33.5637 C-11.2341,36.5107 -11.9911,40.1727 -14.3841,42.3657 C-14.9701,42.9017 -15.6151,43.3737 -16.1781,43.8297 M171.877,59.722 C171.926,58.412 170.783,57.232 169.489,57.255 C168.338,57.276 167.178,58.398 167.121,59.544 C167.062,60.736 168.073,61.858 169.302,61.963 C170.645,62.078 171.826,61.049 171.877,59.722 M207.734,-11.858 C207.744,-13.006 206.648,-14.152 205.468,-14.227 C204.244,-14.305 203.011,-13.109 203.013,-11.845 C203.015,-10.535 203.916,-9.602 205.237,-9.545 C206.612,-9.485 207.723,-10.514 207.734,-11.858 M202.032,-4.532 C196.543,-8.044 195.671,-14.858 202.105,-19.199 L202.105,-23.271 C204.287,-23.16 206.255,-23.06 208.132,-22.966 C208.326,-22.751 208.529,-22.627 208.521,-22.518 C208.347,-20.136 209.373,-18.552 211.163,-16.894 C214.31,-13.977 213.809,-8.403 210.32,-5.891 C208.898,-4.866 208.651,-3.818 208.659,-2.302 C208.701,5.93 208.63,14.164 208.718,22.397 C208.74,24.485 208.066,25.989 206.583,27.453 C197.203,36.719 187.918,46.08 178.562,55.37 C177.522,56.404 177.03,57.335 177.242,58.91 C177.774,62.863 175.101,66.444 171.307,67.246 C167.37,68.079 163.461,65.972 162.237,62.357 C160.918,58.461 162.544,54.22 166.221,52.689 C167.626,52.105 169.32,52.072 170.885,52.064 C171.93,52.058 172.651,51.86 173.406,51.102 C182.538,41.932 191.701,32.792 200.882,23.671 C201.613,22.945 202.04,22.201 202.039,21.165 C202.027,12.615 202.032,4.064 202.032,-4.532 M189.8936,102.8656 C191.1326,102.9216 192.3816,101.7176 192.3756,100.4706 C192.3716,99.2906 191.3126,98.1996 190.0976,98.1246 C188.7576,98.0406 187.6886,99.0936 187.6796,100.5016 C187.6726,101.7376 188.6776,102.8096 189.8936,102.8656 L189.8936,102.8656 Z M187.6806,120.8166 C187.6356,122.1656 188.6906,123.2726 190.0226,123.2776 C191.1956,123.2806 192.3146,122.2066 192.3906,121.0046 C192.4676,119.7846 191.4846,118.6926 190.2296,118.6046 C188.8126,118.5046 187.7246,119.4476 187.6806,120.8166 L187.6806,120.8166 Z M209.4176,124.3006 C206.1386,124.3006 202.8596,124.3466 199.5816,124.2786 C198.0666,124.2486 196.9846,124.5266 195.9476,125.8966 C193.9046,128.5956 190.3406,129.3826 187.3026,128.2196 C184.0276,126.9676 182.1636,124.1256 182.2756,120.5576 C182.3736,117.4286 184.3126,114.7676 187.3236,113.6326 C190.2316,112.5346 193.7756,113.2746 195.8306,115.8076 C196.9766,117.2236 198.1856,117.6416 199.8776,117.6236 C205.6346,117.5616 211.3926,117.5626 217.1496,117.6256 C218.6186,117.6406 219.7506,117.2636 220.7356,116.1486 C221.7906,114.9526 223.0176,113.9086 224.1116,112.7436 C225.5046,111.2596 225.4676,110.0776 224.0766,108.5746 C224.0216,108.5156 223.9636,108.4606 223.9066,108.4056 C222.3476,106.9186 221.0186,104.9006 219.1646,104.0986 C217.3996,103.3356 215.0846,103.8056 213.0116,103.7966 C208.4546,103.7736 203.8956,103.8396 199.3386,103.7616 C197.9346,103.7386 197.0466,104.1616 196.1326,105.2836 C192.7166,109.4746 186.5806,109.2266 183.5866,104.8986 C181.3906,101.7226 181.9366,97.2196 184.8286,94.6696 C187.8146,92.0356 192.4426,92.0936 195.3256,94.8076 C195.6166,95.0816 195.9556,95.3466 196.1316,95.6886 C196.8296,97.0426 197.9906,97.2176 199.3556,97.1976 C202.8726,97.1456 206.3916,97.1866 209.9106,97.1866 C213.1886,97.1866 216.4676,97.2236 219.7456,97.1616 C221.2826,97.1326 222.5406,97.5556 223.6246,98.6646 C225.8606,100.9506 228.1416,103.1926 230.4026,105.4556 C230.5726,105.6246 230.7476,105.7936 230.8906,105.9836 C232.1716,107.6766 231.9906,114.2336 230.5146,115.7906 C228.2066,118.2256 225.8166,120.5856 223.4396,122.9556 C222.4926,123.8996 221.3476,124.3166 219.9726,124.2966 C216.4556,124.2426 212.9356,124.2776 209.4176,124.2776 L209.4176,124.3006 Z M192.4307,59.7123 C192.4567,58.4703 191.2397,57.2473 189.9687,57.2423 C188.7087,57.2363 187.7317,58.2183 187.6887,59.5303 C187.6437,60.9113 188.7137,62.0293 190.0557,62.0023 C191.2177,61.9793 192.4077,60.8313 192.4307,59.7123 M222.5767,-22.1737 C224.8917,-21.9557 226.8587,-21.7707 229.0067,-21.5687 C229.0527,-20.6697 229.1277,-19.8927 229.1277,-19.1157 C229.1357,-4.8837 229.1137,9.3503 229.1637,23.5833 C229.1687,25.1523 228.3197,26.1133 227.3807,27.0793 C225.8277,28.6793 224.2057,30.2093 222.6267,31.7813 C215.1707,39.2023 207.7167,46.6243 200.2717,54.0553 C199.3737,54.9503 198.5307,55.9003 197.6247,56.8653 C197.6747,57.7843 197.7657,58.7383 197.7717,59.6923 C197.7947,63.4813 195.0707,66.6913 191.4487,67.2953 C186.8707,68.0583 183.6867,65.2413 182.6627,62.2723 C181.3847,58.5643 183.0267,54.2793 186.5337,52.7353 C187.8597,52.1513 189.4807,51.9803 190.9457,52.0513 C192.1727,52.1103 193.0337,51.9583 193.9187,51.0673 C203.0517,41.8823 212.2127,32.7243 221.4007,23.5933 C222.1547,22.8453 222.4137,22.1073 222.4127,21.0713 C222.4017,7.5633 222.4307,-5.9467 222.4567,-19.4557 C222.4577,-20.2417 222.5237,-21.0267 222.5767,-22.1737 M128.6982,61.9632 C129.9542,61.9192 130.9782,60.8942 130.9892,59.6682 C131.0002,58.3882 129.8002,57.2042 128.5262,57.2382 C127.2732,57.2732 126.1752,58.5412 126.2762,59.8382 C126.3762,61.1242 127.3852,62.0092 128.6982,61.9632 M130.9982,36.6982 C131.0422,35.4822 130.0472,34.3682 128.8142,34.2572 C127.5442,34.1422 126.3132,35.2632 126.2682,36.5742 C126.2222,37.9152 127.3032,38.9842 128.6932,38.9722 C129.9492,38.9602 130.9522,37.9712 130.9982,36.6982 M133.7892,-1.3968 C132.5432,-1.4328 131.2782,-0.2258 131.2812,0.9952 C131.2842,2.0772 132.5002,3.2712 133.6392,3.3102 C134.7632,3.3482 136.0382,2.2322 136.1342,1.1242 C136.2442,-0.1458 135.1172,-1.3578 133.7892,-1.3968 M125.2522,52.4842 L125.2522,44.1512 C124.1832,43.0382 123.1412,42.1542 122.3462,41.0862 C119.6292,37.4392 120.7632,33.1102 123.9892,30.4682 C124.9862,29.6502 125.3262,28.8952 125.3342,27.6812 C125.3712,21.6102 124.5682,23.2952 129.0682,18.7922 C129.9752,17.8852 130.5322,16.9802 130.4222,15.6472 C130.3232,14.4562 130.3602,13.2472 130.4262,12.0522 C130.5532,9.7762 130.2922,7.9482 128.2012,6.2542 C125.4252,4.0042 125.2402,0.1512 127.0212,-2.9348 C128.7742,-5.9748 132.0982,-7.3898 135.6382,-6.6028 C138.7882,-5.9028 141.4092,-2.9388 141.5662,0.4162 C141.6902,3.0972 140.8402,5.5472 138.4902,7.0642 C137.2722,7.8502 137.0022,8.7952 137.0142,10.0562 C137.0402,12.6932 136.9762,15.3342 137.0612,17.9692 C137.1122,19.5222 136.6792,20.7762 135.5172,21.8092 C134.8022,22.4452 134.1772,23.1882 133.4462,23.8042 C132.3262,24.7462 131.8652,25.8742 131.8862,27.3592 C131.9062,28.7212 132.1772,29.6642 133.3822,30.5782 C137.3842,33.6122 137.5112,39.4992 133.5842,42.6142 C132.2582,43.6662 131.8362,44.7132 131.9162,46.2262 C131.9632,47.1032 131.9902,47.9902 131.9062,48.8622 C131.6952,51.0432 132.1772,52.6792 134.0942,54.1992 C136.7602,56.3142 137.0862,60.6992 135.3302,63.6612 C133.5412,66.6792 129.8692,68.1142 126.3872,67.1592 C123.1112,66.2602 120.9372,63.1802 120.8952,59.5872 C120.8572,56.3252 122.6482,54.2392 125.2522,52.4842 M223.3604,47.0511 C222.0364,46.9931 220.8684,48.1111 220.8764,49.4271 C220.8824,50.6671 221.8824,51.7131 223.1284,51.7821 C224.4584,51.8571 225.6054,50.7601 225.5984,49.4181 C225.5914,48.1551 224.6004,47.1061 223.3604,47.0511 M246.2514,-9.5109 C247.5914,-9.5189 248.6724,-10.6589 248.6034,-11.9929 C248.5404,-13.2239 247.4364,-14.2759 246.2424,-14.2419 C245.0244,-14.2069 243.9254,-13.1509 243.8724,-11.9659 C243.8114,-10.6269 244.9024,-9.5019 246.2514,-9.5109 M249.6104,-4.5709 C249.6104,-1.8279 249.6094,0.9631 249.6114,3.7551 C249.6154,10.8691 249.5564,17.9851 249.6644,25.0981 C249.6944,27.1261 248.9874,28.5731 247.5854,29.9451 C242.7294,34.6921 237.9634,39.5301 233.1244,44.2951 C231.6644,45.7341 230.7054,47.0941 230.9354,49.4411 C231.2884,53.0341 228.8914,55.8901 225.4234,56.8801 C221.8444,57.9031 218.3454,56.6061 216.5684,53.3741 C213.5214,47.8311 217.3624,41.5701 222.9624,41.8321 C225.5264,41.9521 227.0444,41.0301 228.6644,39.3451 C232.8194,35.0251 237.0914,30.8161 241.3824,26.6291 C242.4984,25.5411 242.9554,24.4051 242.9434,22.8441 C242.8804,14.3711 242.8834,5.8971 242.9404,-2.5759 C242.9494,-3.9679 242.6164,-4.8629 241.4354,-5.7599 C238.6614,-7.8669 237.7974,-11.4409 238.9964,-14.6019 C240.1304,-17.5929 243.3054,-19.7319 246.4744,-19.6399 C249.8054,-19.5449 252.8814,-17.2429 253.7594,-14.0239 C254.6124,-10.9049 253.8204,-8.1779 251.4294,-5.9669 C250.9064,-5.4829 250.2974,-5.0939 249.6104,-4.5709 M3.0801,36.6752 C3.0381,35.3292 1.9621,34.2232 0.7081,34.2342 C-0.4709,34.2452 -1.6679,35.5252 -1.6599,36.7662 C-1.6519,37.9642 -0.3329,39.1502 0.8871,39.0542 C2.0071,38.9662 3.1141,37.7652 3.0801,36.6752 M21.3141,38.9482 C22.5981,38.9042 23.5571,37.9042 23.5331,36.6342 C23.5051,35.2352 22.3911,34.1472 21.0891,34.2512 C19.9141,34.3452 18.8391,35.4762 18.8171,36.6392 C18.7921,37.9632 19.9081,38.9952 21.3141,38.9482 M17.7731,43.9262 C12.9361,40.0622 12.0581,35.0612 15.5231,31.3662 C18.5671,28.1212 23.7581,28.0992 26.8881,31.3192 C30.4951,35.0292 29.6651,39.7102 24.5021,44.1322 C24.5021,46.4882 24.4571,48.9632 24.5191,51.4362 C24.5541,52.8152 24.1041,53.8802 23.1141,54.8372 C20.8761,57.0032 18.6971,59.2302 16.5041,61.4432 C15.5021,62.4542 14.3721,63.0052 12.8831,62.9442 C10.7291,62.8552 8.5681,62.8922 6.4121,62.9442 C5.1361,62.9742 4.0491,62.6552 3.1801,61.6982 C3.0731,61.5802 2.9421,61.4842 2.8261,61.3742 C-2.5069,56.3662 -2.5059,56.3662 -2.5259,49.0372 C-2.5269,48.6382 -2.5719,48.2352 -2.5319,47.8392 C-2.2809,45.4132 -2.8009,43.5172 -4.9579,41.8622 C-7.3079,40.0582 -7.6419,35.9652 -6.2449,33.2152 C-4.6809,30.1392 -1.5159,28.5192 1.9141,29.0412 C5.4871,29.5842 7.6501,31.7422 8.3261,35.1782 C8.9681,38.4442 7.9421,41.0262 5.3351,42.9452 C4.3661,43.6582 4.0451,44.4392 4.0721,45.5612 C4.1211,47.5582 4.0781,49.5562 4.0911,51.5542 C4.1021,53.1762 6.0651,55.9882 7.6271,56.1802 C9.8761,56.4562 12.2991,56.9472 13.9271,54.5562 C14.1911,54.1682 14.5671,53.8302 14.9541,53.5562 C17.5881,51.6832 18.3581,49.1112 17.8851,46.0272 C17.7771,45.3212 17.8061,44.5972 17.7731,43.9262 M131.0015,141.3216 C131.0195,140.0806 130.0115,139.0486 128.7445,139.0096 C127.3135,138.9676 126.2565,139.9566 126.2665,141.3296 C126.2755,142.5626 127.3005,143.6466 128.5035,143.6966 C129.8065,143.7516 130.9825,142.6336 131.0015,141.3216 M151.4175,120.8846 C151.4235,119.6266 150.4375,118.6066 149.1675,118.5576 C147.7745,118.5056 146.6925,119.5406 146.7025,120.9156 C146.7095,122.0936 147.8005,123.2566 148.9595,123.3196 C150.1905,123.3866 151.4095,122.1786 151.4175,120.8846 M131.0165,120.7286 C130.9645,119.4916 129.7305,118.4496 128.4195,118.5376 C127.2545,118.6166 126.2265,119.7586 126.2515,120.9446 C126.2805,122.2696 127.6465,123.4276 129.0125,123.2866 C130.0335,123.1796 131.0645,121.8646 131.0165,120.7286 M125.2865,134.0736 C125.2865,133.2666 125.1945,132.4586 125.3045,131.6766 C125.6135,129.4676 125.0225,127.7586 123.1535,126.3526 C120.2785,124.1886 119.8965,118.5176 123.1015,115.3836 C126.1395,112.4126 131.2745,112.2346 134.0695,115.4786 C135.7305,117.4076 137.4725,117.7676 139.6785,117.6046 C140.3915,117.5516 141.1115,117.5966 141.8165,117.5966 C142.3105,116.9576 142.7165,116.3666 143.1875,115.8326 C146.1175,112.5106 151.0895,112.2246 154.3605,115.1766 C157.5165,118.0236 157.7705,123.1536 154.9055,126.1776 C151.8665,129.3866 146.6535,129.7786 143.8145,126.4616 C142.0605,124.4126 140.2605,124.2066 137.9835,124.2686 C136.6395,124.3056 135.4325,124.3186 134.7775,125.7516 C134.6515,126.0276 134.3975,126.3066 134.1295,126.4466 C130.9365,128.1036 131.9815,131.0406 132.0455,133.6166 C132.0585,134.1426 132.8365,134.7306 133.3725,135.1496 C136.1685,137.3366 136.9225,140.2226 136.0625,143.5016 C135.2035,146.7696 132.8935,148.5746 129.5725,149.0786 C126.3985,149.5606 122.9885,147.6466 121.5475,144.5986 C120.1275,141.5966 120.9125,137.7496 123.3925,135.6106 C123.9925,135.0926 124.6235,134.6106 125.2865,134.0736 M305.1455,77.7611 C303.7545,77.7461 302.7155,78.7841 302.7505,80.1541 C302.7845,81.4221 303.7825,82.4231 305.0345,82.4421 C306.2025,82.4591 307.4105,81.3811 307.4775,80.2601 C307.5565,78.9661 306.4445,77.7761 305.1455,77.7611 M284.5125,102.8451 C285.7645,102.8981 286.9985,101.7231 287.0185,100.4581 C287.0375,99.3141 285.9125,98.1441 284.7505,98.1001 C283.4255,98.0501 282.2905,99.1491 282.2865,100.4841 C282.2835,101.7181 283.2975,102.7931 284.5125,102.8451 M287.6085,93.0321 C290.6655,89.9041 293.7715,86.6871 296.9275,83.5201 C297.5985,82.8461 297.5535,82.2111 297.4155,81.3641 C296.8015,77.6181 298.8915,74.0791 302.3885,72.7711 C305.8055,71.4911 309.8475,72.9041 311.7835,76.0951 C313.2675,78.5441 313.3885,81.1241 312.0375,83.6231 C310.6175,86.2491 308.3975,88.1001 305.3025,87.7581 C302.8415,87.4861 301.2945,88.3701 299.7625,90.0701 C297.8375,92.2031 295.7625,94.2091 293.6495,96.1591 C292.5495,97.1741 292.1755,98.1581 292.3735,99.6991 C292.8025,103.0651 291.1455,106.0011 288.2155,107.3901 C285.2145,108.8111 282.3015,108.5731 279.6665,106.4741 C277.1275,104.4511 276.1595,100.7451 277.3155,97.8021 C278.5785,94.5891 281.6415,92.5431 284.9805,92.7151 C285.6955,92.7521 286.4055,92.8841 287.6085,93.0321 M8.4624,-1.4166 C7.1284,-1.4266 6.0014,-0.3036 6.0364,1.0014 C6.0684,2.2164 7.0974,3.2284 8.3544,3.2824 C9.6844,3.3404 10.7854,2.2244 10.7364,0.8684 C10.6884,-0.4386 9.7254,-1.4066 8.4624,-1.4166 M41.6604,-12.3476 C43.1794,-12.6166 45.1314,-12.9626 47.3194,-13.3516 C47.6494,-10.5766 48.0754,-8.0716 45.6504,-5.8826 C42.6304,-3.1556 39.8294,-0.1856 36.9824,2.7274 C35.9044,3.8294 34.7104,4.3254 33.1524,4.3034 C28.5204,4.2384 23.8854,4.2794 19.2524,4.2794 L15.7814,4.2794 C15.0924,5.1074 14.5754,5.8234 13.9644,6.4474 C11.3444,9.1214 7.3444,9.5014 4.0834,7.4224 C1.2404,5.6094 -0.0996,1.5894 1.0504,-1.6766 C1.5884,-3.2066 2.4914,-4.2626 4.2224,-4.5516 C6.0294,-4.8546 7.8444,-5.2216 9.5854,-5.7796 C11.8024,-6.4916 13.3964,-5.6196 14.5284,-3.9246 C15.3624,-2.6766 16.3184,-2.3826 17.7094,-2.4066 C22.0224,-2.4796 26.3374,-2.4826 30.6504,-2.4016 C32.0464,-2.3756 33.0784,-2.8126 34.0194,-3.7936 C35.6774,-5.5226 37.4484,-7.1446 39.0784,-8.8986 C39.9594,-9.8476 40.6464,-10.9766 41.6604,-12.3476 M151.3677,80.0619 C151.3967,78.7589 150.4967,77.8009 149.1807,77.7329 C147.8197,77.6619 146.7367,78.6879 146.7177,80.0679 C146.7007,81.2929 147.7087,82.3779 148.9257,82.4449 C150.2307,82.5159 151.3367,81.4369 151.3677,80.0619 M169.4737,77.7599 C168.0897,77.8029 167.0637,78.8919 167.1357,80.2439 C167.1967,81.3919 168.3777,82.4679 169.5517,82.4449 C170.7217,82.4209 171.8727,81.2939 171.8837,80.1609 C171.8967,78.7999 170.8117,77.7189 169.4737,77.7599 M156.3697,76.7929 C157.0747,76.7929 157.7927,76.7489 158.5037,76.8019 C160.7107,76.9649 162.4417,76.5709 164.1247,74.6879 C167.2117,71.2349 172.3117,71.5279 175.3717,74.8799 C178.1987,77.9769 177.9297,83.1329 174.7987,85.8799 C171.3137,88.9369 166.1737,88.5219 163.3507,84.7979 C162.5697,83.7669 161.8027,83.3109 160.5887,83.4029 C160.1127,83.4399 159.6257,83.4509 159.1517,83.3989 C157.3787,83.2039 156.1237,83.6729 154.8817,85.2149 C152.1327,88.6269 146.7167,88.7759 143.7757,85.8319 C140.3737,82.4259 140.4897,77.3109 144.0407,74.1329 C147.2347,71.2749 152.5927,71.8659 155.3167,75.3799 C155.6557,75.8179 155.9777,76.2669 156.3697,76.7929 M274.209,75.0765 C274.27,73.7985 273.094,72.5695 271.813,72.5725 C270.63,72.5745 269.521,73.6465 269.448,74.8575 C269.378,76.0435 270.399,77.2225 271.586,77.3235 C272.898,77.4355 274.147,76.3655 274.209,75.0765 M256.265,74.9895 C256.268,73.6295 255.144,72.5115 253.82,72.5575 C252.683,72.5975 251.554,73.7845 251.546,74.9475 C251.538,76.2375 252.734,77.3935 254.023,77.3415 C255.276,77.2905 256.262,76.2575 256.265,74.9895 M264.697,78.3735 C264.06,78.3375 263.581,78.3285 263.105,78.2805 C261.822,78.1515 260.96,78.5385 260.127,79.6955 C257.127,83.8585 250.961,83.4425 248.157,80.1975 C245.346,76.9445 245.567,71.9565 248.713,69.1815 C252.061,66.2295 257.256,66.5855 260.012,70.1295 C260.913,71.2885 261.796,71.7185 263.204,71.6655 C264.386,71.6225 265.015,71.0915 265.714,70.2115 C268.981,66.0955 275.089,66.1955 278.136,70.3395 C280.683,73.8015 279.958,78.6085 276.496,81.2175 C273.175,83.7215 268.362,83.1065 265.755,79.8385 C265.406,79.4015 265.1,78.9315 264.697,78.3735 M264.1436,98.1175 C262.8556,98.1475 261.6766,99.3805 261.7566,100.6145 C261.8336,101.7975 262.9586,102.8565 264.1416,102.8615 C265.4326,102.8665 266.5506,101.6855 266.4996,100.3675 C266.4556,99.2005 265.2926,98.0905 264.1436,98.1175 M248.5976,100.4295 C248.5866,99.1955 247.5646,98.1605 246.3116,98.1145 C245.0336,98.0675 243.8576,99.2415 243.8786,100.5425 C243.8996,101.7685 244.9216,102.7965 246.1736,102.8465 C247.4636,102.8995 248.6096,101.7575 248.5976,100.4295 M238.5486,100.5215 C238.5886,97.1525 240.4886,94.3175 243.4316,93.2335 C246.6706,92.0395 250.1396,92.8885 252.3106,95.5905 C253.1186,96.5955 253.8486,97.2345 255.2446,97.1845 C256.4786,97.1395 257.2466,96.7785 258.0126,95.7625 C261.1976,91.5395 267.2826,91.8765 270.2776,95.6315 C272.8746,98.8885 272.3926,103.8385 269.2586,106.4395 C265.9566,109.1805 261.1176,108.8335 258.2856,105.5445 C257.3716,104.4825 256.6326,103.5305 254.9846,103.7215 C253.9336,103.8425 253.2636,104.1415 252.6276,105.0035 C250.8256,107.4465 248.3586,108.5175 245.3066,108.1735 C241.2796,107.7185 238.4996,104.5775 238.5486,100.5215 M77.2935,-14.5319 C77.2315,-15.8829 76.1045,-16.8579 74.7425,-16.7399 C73.4875,-16.6329 72.5305,-15.6119 72.5305,-14.3809 C72.5305,-13.0939 73.7035,-11.9629 74.9895,-12.0109 C76.2775,-12.0569 77.3535,-13.2349 77.2935,-14.5319 M98.4315,-20.3899 C98.9255,-18.8279 98.4035,-17.8739 97.5865,-17.0389 C95.9665,-15.3819 94.3275,-13.7429 92.6865,-12.1069 C91.9135,-11.3369 91.0015,-10.9999 89.8765,-11.0449 C88.0405,-11.1189 86.1945,-10.9879 84.3615,-11.0899 C82.8855,-11.1719 81.9085,-10.7519 80.9645,-9.4969 C78.1275,-5.7239 72.6455,-5.8939 69.8615,-8.4319 C67.8195,-10.2949 66.9755,-12.5689 67.1865,-15.2999 C67.2625,-16.2749 67.7235,-16.6779 68.6765,-16.7979 C72.5605,-17.2879 76.4365,-17.8329 80.3155,-18.3529 C80.6315,-18.3959 81.0545,-18.5529 81.2525,-18.4109 C82.8425,-17.2759 84.6405,-17.8279 86.3515,-17.7129 C87.8115,-17.6149 89.2165,-17.6219 90.2235,-19.0289 C90.4975,-19.4119 91.1665,-19.6369 91.6825,-19.7009 C93.8905,-19.9739 96.1085,-20.1619 98.4315,-20.3899 M164.3379,-9.5387 C165.7399,-9.5087 166.7929,-10.5267 166.7689,-11.8907 C166.7479,-13.0637 165.6939,-14.1277 164.4649,-14.2167 C163.2119,-14.3067 162.0529,-13.1327 162.0749,-11.7957 C162.0959,-10.4927 163.0249,-9.5667 164.3379,-9.5387 M161.2449,-23.9487 L167.6519,-23.9487 C167.6989,-23.0377 167.8369,-22.1837 167.7649,-21.3467 C167.6319,-19.7867 168.1519,-18.7547 169.4399,-17.7267 C173.0349,-14.8537 173.1769,-9.4467 169.9309,-6.2837 C166.8179,-3.2507 161.9929,-3.2517 158.9229,-6.2877 C155.8819,-9.2957 155.6879,-14.3647 158.9499,-17.2057 C160.6999,-18.7287 161.2419,-20.2417 161.0559,-22.3277 C161.0149,-22.7827 161.1579,-23.2547 161.2449,-23.9487 M184.958,-9.5329 C186.306,-9.5689 187.366,-10.7209 187.269,-12.0429 C187.182,-13.2039 185.992,-14.2799 184.836,-14.2429 C183.649,-14.2059 182.556,-13.1019 182.526,-11.9149 C182.494,-10.5839 183.603,-9.4979 184.958,-9.5329 M181.604,-19.1289 L181.604,-23.8979 L184.384,-23.8979 L188.122,-23.8979 L188.122,-19.0959 C190.643,-17.4199 192.552,-15.5059 192.65,-12.3559 C192.721,-10.0839 192.166,-8.0719 190.578,-6.4319 C187.364,-3.1149 182.093,-3.2279 179.066,-6.6389 C175.763,-10.3619 176.692,-15.2839 181.604,-19.1289 M164.377,31.3011 C165.684,31.3501 166.686,30.4581 166.757,29.1821 C166.833,27.8191 165.791,26.6451 164.493,26.6301 C163.369,26.6171 162.146,27.7251 162.05,28.8411 C161.938,30.1561 162.971,31.2481 164.377,31.3011 M164.419,21.2141 C168.727,21.1551 172.185,24.6641 172.271,29.1791 C172.347,33.1481 168.774,36.7261 164.598,36.8641 C160.442,37.0021 156.717,33.4491 156.618,29.2511 C156.515,24.9141 160.049,21.2741 164.419,21.2141 M164.3354,6.2152 C163.1724,6.2422 162.0584,7.3592 162.0234,8.5312 C161.9874,9.7572 163.2514,11.0252 164.4624,10.9802 C165.6564,10.9352 166.7264,9.8392 166.7484,8.6362 C166.7734,7.3002 165.6624,6.1852 164.3354,6.2152 M164.5814,0.8912 C168.3984,0.6892 172.2474,3.9692 172.2524,8.6842 C172.2564,13.0562 168.6264,16.4622 164.1724,16.3812 C159.9624,16.3042 156.5024,12.6502 156.6154,8.4032 C156.7314,4.0922 160.1824,0.8372 164.5814,0.8912 M49.2373,10.9818 C50.5123,11.0258 51.7003,9.8438 51.6823,8.5488 C51.6643,7.2978 50.6353,6.2448 49.4163,6.2288 C48.1733,6.2128 47.0713,7.1898 46.9763,8.3918 C46.8713,9.7268 47.9263,10.9358 49.2373,10.9818 M49.5523,0.8978 C53.9173,0.9668 57.2043,4.3888 57.1103,8.7658 C57.0143,13.2328 53.5623,16.4828 49.0233,16.3818 C44.7413,16.2868 41.5563,12.8278 41.6283,8.3508 C41.6983,3.9768 45.0483,0.8258 49.5523,0.8978 M304.9697,49.2543 C306.1967,49.3043 307.4827,48.0933 307.4957,46.8743 C307.5087,45.7343 306.4067,44.6193 305.1897,44.5433 C303.8507,44.4583 302.7777,45.5103 302.7667,46.9163 C302.7577,48.2243 303.6797,49.2033 304.9697,49.2543 M305.1187,54.7043 C300.8477,54.7253 297.3587,51.2943 297.2697,46.9863 C297.1797,42.6593 300.7597,39.1373 305.2217,39.1613 C309.5697,39.1863 312.9707,42.6073 312.9497,46.9373 C312.9297,51.1353 309.3527,54.6843 305.1187,54.7043 M276.752,41.8412 C276.804,40.6332 275.784,39.5152 274.548,39.4232 C273.232,39.3262 272.014,40.4112 271.977,41.7122 C271.94,42.9932 273.109,44.1632 274.413,44.1512 C275.587,44.1392 276.7,43.0402 276.752,41.8412 M274.239,49.5842 C270.094,49.5672 266.702,46.1362 266.66,41.9152 C266.615,37.4292 270.018,33.9962 274.48,34.0292 C278.754,34.0592 282.24,37.5302 282.266,41.7822 C282.291,46.0682 278.654,49.6032 274.239,49.5842 M149.0869,98.1009 C147.8499,98.0789 146.6449,99.2939 146.6709,100.5399 C146.6959,101.7819 147.9279,102.9659 149.1569,102.9309 C150.2749,102.8999 151.3699,101.7709 151.4269,100.5889 C151.4889,99.2989 150.3839,98.1239 149.0869,98.1009 M149.1769,108.2499 C144.7809,108.2959 141.3529,104.9669 141.3449,100.6449 C141.3369,96.1539 144.7629,92.6469 149.1309,92.6749 C153.3039,92.7029 156.9579,96.3579 156.9339,100.4819 C156.9089,104.8159 153.5249,108.2049 149.1769,108.2499 M258.7842,41.808 C258.8132,40.373 257.8222,39.371 256.4082,39.407 C255.1982,39.437 254.1212,40.514 254.0982,41.714 C254.0762,42.991 255.2792,44.182 256.5532,44.143 C257.8052,44.106 258.7572,43.11 258.7842,41.808 M264.2002,41.739 C264.2242,46.209 261.0452,49.481 256.6232,49.533 C252.1692,49.584 248.6732,46.144 248.7042,41.738 C248.7342,37.421 252.1272,34.154 256.5032,34.019 C260.2772,33.903 264.4792,37.276 264.2002,41.739 M169.6006,118.5736 C168.2796,118.5326 167.1306,119.6026 167.1156,120.8876 C167.1006,122.1516 168.2246,123.2776 169.5306,123.3076 C170.6886,123.3356 171.7836,122.2946 171.8676,121.0856 C171.9586,119.7666 170.9186,118.6156 169.6006,118.5736 M169.3566,128.6886 C165.0556,128.6666 161.7466,125.2046 161.8046,120.7906 C161.8626,116.4476 165.2556,113.1426 169.6406,113.1586 C173.9646,113.1756 177.3326,116.5936 177.3236,120.9576 C177.3136,125.4046 173.9056,128.7126 169.3566,128.6886 M130.9946,100.3314 C130.9426,99.1624 129.7936,98.1134 128.5826,98.1294 C127.2276,98.1474 126.1986,99.2694 126.2736,100.6464 C126.3416,101.8934 127.4016,102.8844 128.6426,102.8624 C129.9106,102.8424 131.0516,101.6124 130.9946,100.3314 M136.3416,100.6514 C136.3146,105.0224 132.9736,108.2634 128.5306,108.2254 C124.0096,108.1854 120.8616,104.8844 120.9076,100.2294 C120.9476,96.0784 124.3836,92.7094 128.5976,92.6884 C133.0426,92.6664 136.3696,96.0874 136.3416,100.6514 M187.2314,8.6556 C187.2894,7.4256 186.3354,6.3296 185.1004,6.2076 C183.8354,6.0816 182.5874,7.1756 182.5084,8.4786 C182.4314,9.7296 183.6304,10.9636 184.9104,10.9516 C186.0954,10.9396 187.1744,9.8736 187.2314,8.6556 M192.6234,8.7596 C192.6194,12.9716 189.2744,16.3426 185.0494,16.3896 C180.6064,16.4396 177.0854,12.9746 177.1174,8.5856 C177.1494,4.2436 180.5304,0.8866 184.8754,0.8846 C189.4394,0.8806 192.6274,4.1206 192.6234,8.7596 M0.9819,136.1752 C0.9319,137.6232 1.8589,138.6302 3.2839,138.6742 C4.4729,138.7102 5.8059,137.4372 5.7989,136.2702 C5.7929,135.0132 4.5829,133.8782 3.2659,133.8942 C1.9919,133.9092 1.0279,134.8722 0.9819,136.1752 M3.5239,128.5332 C7.4849,128.1632 11.4409,132.7832 11.1109,136.4732 C10.6959,141.1102 7.6879,144.2312 3.1369,143.9522 C-1.9761,143.6392 -4.3691,140.6612 -4.3201,136.0582 C-4.2671,131.0852 -0.3361,128.3212 3.5239,128.5332 Z M280.4365,-15.4332 C282.2545,-15.1002 284.1035,-14.7612 286.1645,-14.3832 C285.0685,-13.0372 284.1215,-11.8642 285.3095,-10.3692 C286.0275,-9.4662 287.3395,-9.2272 288.3455,-9.7872 C289.4975,-10.4262 289.6855,-11.2372 289.1755,-13.8632 C297.7485,-12.3032 306.2845,-11.1012 314.6105,-8.5492 L312.3045,-8.5492 C307.1975,-8.5492 302.0885,-8.5002 296.9825,-8.5782 C295.3555,-8.6022 294.2315,-8.2662 293.1525,-6.8412 C290.8265,-3.7712 286.6425,-3.1802 283.2345,-5.1142 C280.0555,-6.9182 278.5925,-10.8982 279.8205,-14.4422 C279.9205,-14.7292 280.1465,-14.9742 280.4365,-15.4332 Z M19.9717,-7.9811 C22.9487,-8.6531 25.7887,-9.2971 28.6317,-9.9271 C29.0047,-10.0101 29.3937,-10.0141 29.8577,-10.0631 C28.1027,-6.5821 23.0497,-5.4881 19.9717,-7.9811 Z" id="Logo" fill="navy"></path>
    </g>
</svg>
