<?xml version="1.0" standalone="no"?>
<!DOCTYPE svg PUBLIC "-//W3C//DTD SVG 20010904//EN"
 "http://www.w3.org/TR/2001/REC-SVG-20010904/DTD/svg10.dtd">
<svg version="1.0" xmlns="http://www.w3.org/2000/svg"
 width="100.000000pt" height="100.000000pt" viewBox="0 0 100.000000 100.000000"
 preserveAspectRatio="xMidYMid meet">
<metadata>
Created by potrace 1.11, written by Peter Selinger 2001-2013
</metadata>
<g transform="translate(0.000000,100.000000) scale(0.100000,-0.100000)"
fill="#000000" stroke="none">
<path d="M474 937 c-3 -8 -4 -39 -2 -68 3 -50 5 -54 28 -54 24 0 25 2 25 65 0
60 -2 65 -23 68 -12 2 -24 -3 -28 -11z"/>
<path d="M233 843 c-24 -9 -13 -39 26 -77 30 -29 44 -36 60 -31 31 9 26 27
-20 73 -41 43 -44 44 -66 35z"/>
<path d="M700 810 c-44 -43 -49 -73 -15 -78 30 -4 99 70 90 97 -9 31 -29 26
-75 -19z"/>
<path d="M447 755 c-26 -6 -57 -20 -69 -31 -72 -62 -85 -103 -83 -266 1 -126
1 -128 -21 -128 -31 0 -37 -13 -36 -77 0 -65 7 -72 76 -70 l51 1 3 -77 3 -77
28 0 29 0 -1 70 c0 39 3 73 6 76 3 4 28 6 54 6 90 0 83 6 83 -77 l0 -75 30 0
30 0 0 75 c0 53 4 75 13 76 6 1 33 1 60 1 50 1 54 5 58 63 4 61 -1 75 -29 81
l-28 6 0 116 c1 150 -7 190 -49 240 -57 66 -125 88 -208 67z m128 -74 c55 -30
71 -80 70 -221 l-1 -125 -145 -3 -146 -3 2 133 c2 146 11 180 62 216 48 34
100 35 158 3z m125 -425 c0 -11 -38 -13 -200 -13 -162 0 -200 2 -200 13 0 11
38 14 200 14 162 0 200 -3 200 -14z"/>
<path d="M440 658 c-29 -17 -60 -65 -60 -91 0 -21 25 -38 44 -31 9 3 16 14 16
25 0 23 40 61 57 55 19 -8 37 32 23 49 -15 18 -45 15 -80 -7z"/>
<path d="M120 585 c-11 -13 -11 -19 2 -32 15 -14 36 -17 106 -14 29 1 41 30
19 46 -26 18 -112 18 -127 0z"/>
<path d="M749 589 c-6 -3 -9 -15 -7 -25 6 -31 130 -38 142 -8 10 25 -21 43
-74 41 -27 0 -55 -4 -61 -8z"/>
</g>
</svg>
